<?xml version="1.0" encoding="utf-8"?>
<!-- Generator: Adobe Illustrator 27.7.0, SVG Export Plug-In . SVG Version: 6.00 Build 0)  -->
<svg version="1.1" xmlns="http://www.w3.org/2000/svg" xmlns:xlink="http://www.w3.org/1999/xlink" x="0px" y="0px"
	 viewBox="0 0 246.2 212.6" style="enable-background:new 0 0 246.2 212.6;" xml:space="preserve">
<style type="text/css">
	.st0{display:none;}
	.st1{display:inline;}
	.st2{fill:none;stroke:#FFFFFF;stroke-width:0.5;stroke-miterlimit:10;}
	.st3{fill:#999999;}
	.st4{fill:#666766;}
	.st5{fill:#FFFFFF;}
</style>
<g id="Layer_1" class="st0">
	<rect x="0" y="-31.4" class="st1" width="283.5" height="283.5"/>
</g>
<g id="Layer_3" class="st0">
	<g class="st1">
		<rect x="0" y="-31.4" class="st2" width="283.5" height="283.5"/>
		<line class="st2" x1="0" y1="204.8" x2="283.5" y2="204.8"/>
		<line class="st2" x1="0" y1="157.6" x2="283.5" y2="157.6"/>
		<line class="st2" x1="0" y1="110.3" x2="283.5" y2="110.3"/>
		<line class="st2" x1="0" y1="63.1" x2="283.5" y2="63.1"/>
		<line class="st2" x1="0" y1="15.9" x2="283.5" y2="15.9"/>
		<line class="st2" x1="236.2" y1="-31.4" x2="236.2" y2="252.1"/>
		<line class="st2" x1="189" y1="-31.4" x2="189" y2="252.1"/>
		<line class="st2" x1="141.7" y1="-31.4" x2="141.7" y2="252.1"/>
		<line class="st2" x1="94.5" y1="-31.4" x2="94.5" y2="252.1"/>
		<line class="st2" x1="47.2" y1="-31.4" x2="47.2" y2="252.1"/>
	</g>
</g>
<g id="Layer_4">
	<g>
		<g>
			<path class="st3" d="M169.6,70.6c3.6,2.7,8.8,0.4,11.9-2c4.4-3.5,6.7-8.8,11-12.4c2.4-2.1-0.2-3.6-2.3-1.9c-2.6,2-4.6,4.4-6.5,7
				c-3.2,4.2-5.8,7.3-11.6,6.6C171,67.8,168.3,69.7,169.6,70.6L169.6,70.6z"/>
		</g>
	</g>
	<g>
		<g>
			<path class="st3" d="M167.4,46.1c9.7,1.9,19.3,2.5,28.9,5.1c2.7,0.7,8.2-4.4,4.7-5.3c-10-2.4-20.7-4.5-31.1-3.8
				C168.6,42.2,164.8,45.5,167.4,46.1L167.4,46.1z"/>
		</g>
	</g>
	<g>
		<g>
			<path class="st3" d="M203.4,42.6c1.7-2.7,3.2-5.1,6.5-5.9c-0.3-0.3-0.6-0.5-1-0.8c-0.1,0.4-0.2,0.8-0.2,1.2
				c-0.1,0.8,0.7,0.9,1.3,0.7c0.8-0.3,1.6-1,1.9-1.8c0.2-0.4,0.3-0.8,0.4-1.2c0.2-0.6-0.4-0.9-1-0.8c-2.5,0.6-4.8,1.6-6.7,3.4
				c-1.6,1.4-3.5,3.7-3.7,5.9C200.9,44.7,203.1,43.1,203.4,42.6L203.4,42.6z"/>
		</g>
	</g>
	<g>
		<g>
			<path class="st3" d="M202.5,50c-0.6,4,0.7,7.4,2.4,10.9c1.8,3.9,3.4,9.4,6.5,12.4c1.5,1.5,5.6-1.3,5.2-3.3
				c-0.7-3.6-3.2-6.8-5.1-9.9c-2.2-3.8-4-7.5-5.3-11.7C205.7,46.6,202.7,49,202.5,50L202.5,50z"/>
		</g>
	</g>
	<g>
		<g>
			<path class="st3" d="M183.4,75.1c0.1,0.5,0.1,1,0.3,1.4c0.2,0.5,0.3,1,1,1c0.7,0,1.5-0.5,1.9-1.2c0.3-0.6,0.1-1-0.1-1.6
				c-0.2-0.4-0.4-0.7-0.7-1.1c-0.3-0.4-1-0.1-1.4,0.1C183.9,74,183.3,74.5,183.4,75.1L183.4,75.1z"/>
		</g>
	</g>
	<g>
		<g>
			<path class="st3" d="M199.7,55.7c0.2-0.3,0.4-0.6,0.6-0.9c0.3-0.5,0.8-1.2,0.3-1.7c-0.4-0.5-1.2-0.2-1.6,0
				c-0.3,0.2-0.6,0.4-0.9,0.6c-0.4,0.4-0.7,0.7-1,1.2c-0.2,0.3-0.4,0.6-0.5,0.9c-0.1,0.2-0.3,0.7,0,1c0.2,0.2,0.5,0.3,0.8,0.3
				c0.4,0,0.8-0.1,1.1-0.3C198.9,56.5,199.4,56.2,199.7,55.7L199.7,55.7z"/>
		</g>
	</g>
	<g>
		<g>
			<path class="st3" d="M192.3,43.1c0.8-0.8,1.6-1.6,2.1-2.7c0.2-0.4,0.2-0.9-0.3-1.1c-0.6-0.2-1.3,0.2-1.7,0.5
				c-0.6,0.5-1.1,0.9-1.6,1.5c-0.3,0.4-0.6,0.7-0.9,1.1c-0.4,0.5-0.7,1.4,0.1,1.6C190.7,44.2,191.8,43.7,192.3,43.1L192.3,43.1z"/>
		</g>
	</g>
	<g>
		<g>
			<path class="st3" d="M181.6,40.7c0.2-0.3,0.4-0.6,0.6-1c0.1-0.2-0.1,0.2,0-0.1c0-0.1,0.1-0.2,0.2-0.3c0.1-0.1,0.1-0.1,0,0
				c0.1-0.2,0.2-0.3,0.3-0.5c0.1-0.2-0.1,0.1,0,0c0,0,0.3-0.3,0,0c0.3-0.3,0.8-0.9,0.5-1.4c-0.3-0.4-1.1-0.2-1.4,0
				c-0.8,0.5-1.6,1.1-2.1,1.8c-0.2,0.3-0.4,0.6-0.5,1c-0.2,0.5-0.3,0.8-0.1,1.3c0.2,0.4,0.9,0.2,1.2,0.1
				C180.7,41.5,181.2,41.2,181.6,40.7L181.6,40.7z"/>
		</g>
	</g>
	<g>
		<g>
			<path class="st3" d="M201.9,61.1c0-0.8,0-1.4-0.5-2c-0.4-0.6-1.4-0.3-1.8-0.1c-0.7,0.3-1.6,0.9-1.9,1.7c-0.2,0.5-0.4,1-0.5,1.5
				c-0.1,0.5,0,0.9-0.1,1.4c0,0.4,0.5,0.7,0.9,0.7c0.6,0.1,1.3-0.2,1.7-0.4C200.7,63.4,201.9,62.4,201.9,61.1L201.9,61.1z"/>
		</g>
	</g>
	<g>
		<g>
			<path class="st3" d="M125.2,79.5c0.3,5.7,2,11.3,3.2,16.9c1.3,5.9,2.6,11.7,4,17.6c2.6,11.4,5.3,22.7,7.9,34.1
				c0.8,3.4,6.3-1.3,6.7-3c3.1-10.9,6.3-21.6,11.3-31.8c4.7-9.7,10.5-18.8,15.9-28.2c0.7-1.1-1.3-0.3-1.6,0.1
				c-7.8,8.9-13.8,19-19.1,29.6c-5.2,10.5-10,21.4-13.2,32.7c2.2-1,4.5-2,6.7-3c-2.7-11.7-5.4-23.4-8.2-35c-1.3-5.5-2.6-11-3.9-16.5
				c-1.3-5.5-2.3-11.4-4.6-16.6C129.5,74.1,125.2,77.9,125.2,79.5L125.2,79.5z"/>
		</g>
	</g>
</g>
<g id="Layer_2">
	<g>
		<g>
			<path class="st5" d="M0.9,75.6c4.3,1.2,9.1,0.6,13.6,0.9c5,0.4,9.9,1.5,14.9,1.9c10.5,0.9,21,1.4,31.5,2.2c2.8,0.2,8.2-5.8,4.6-6
				c-10.7-0.5-21.5-1.3-32.3-1.2C28,73.6,23,74,17.9,74.3c-5.4,0.3-11-0.5-16.3,0.5C1.4,74.8,0.5,75.5,0.9,75.6L0.9,75.6z"/>
		</g>
	</g>
	<g>
		<g>
			<path class="st5" d="M35.9,83.7c-1.5,8.5,0.6,18,0.5,26.7c-0.2,9.5-1.6,19.5-0.2,28.9c0.4,2.8,7.9-0.8,6.5-4
				c-0.2-0.4-0.3-0.8-0.5-1.2c-0.7-2-3.6,0.6-4.2,1.5c-0.4,0.6-0.7,1.1-1.1,1.7c2-0.5,4-1,5.9-1.5c0.3-8.7-1.9-17.6-3.1-26.2
				c-0.6-4.4-0.9-8.9-1.1-13.3c-0.2-4.3,0.1-9.2-1.3-13.2C37.1,82.4,35.9,83.2,35.9,83.7L35.9,83.7z"/>
		</g>
	</g>
	<g>
		<g>
			<path class="st5" d="M126,115c0.2,4.6,2.6,9.3,4.3,13.6c1.6,4.1,3.1,7.4,6.3,10.6c0.5,0.5,1.6-0.4,1.5-1c-0.4-4.7-1.7-8-3.5-12.3
				c-1.7-4.1-3-9.2-6-12.5C127.8,112.5,125.9,114.1,126,115L126,115z"/>
		</g>
	</g>
	<g>
		<g>
			<path class="st5" d="M140.1,136.5c2.8-3.3,4.7-7.4,7-11c2.4-3.6,5.5-6.5,8.2-9.8c1-1.2-0.7-1.3-1.5-0.7
				c-3.7,2.8-6.8,6.6-9.7,10.2c-2.7,3.2-6.4,7.6-7.1,11.8C136.6,138.9,139.7,137,140.1,136.5L140.1,136.5z"/>
		</g>
	</g>
	<g>
		<g>
			<path class="st5" d="M179.6,127.4c5.4,2.1,14.5-2.2,14.3-8.7c-0.2-7.9-13-5-17-2.6c-6,3.5-9.2,13.3-4.9,19.3
				c5,6.9,16.2,5.8,23,2.8c0.7-0.3,3.3-3.3,1.2-3.2c-4.2,0.1-8.2,1.9-12.5,1.2c-5.1-0.9-9-4.5-8.7-9.9c0.1-2.5,0.7-5,2.6-6.7
				c1.9-1.6,5.1-2.1,7.6-1.9c2.2,0.1,5.2,1.3,4.5,4.1c-0.7,2.9-6.3,2.8-8.6,3.4C180.5,125.2,178.4,126.9,179.6,127.4L179.6,127.4z"
				/>
		</g>
	</g>
	<g>
		<g>
			<path class="st5" d="M60.8,111.8c0.4,0,1.2-0.9,0.7-0.9C61,110.9,60.2,111.8,60.8,111.8L60.8,111.8z"/>
		</g>
	</g>
	<g>
		<g>
			<path class="st5" d="M60.6,111.6c-1.5,4.4-1.1,9.1-2.1,13.7c-1,4.6-2.1,9.1-2.6,13.8c-0.3,3.1,5.5,0.2,5.6-2
				c0.3-4.1,0-8.1-0.2-12.2c-0.2-4.5,1.4-9.4,0.2-13.8C61.5,110.6,60.7,111.3,60.6,111.6L60.6,111.6z"/>
		</g>
	</g>
	<g>
		<g>
			<path class="st5" d="M63.4,112.3c2.9-1.6,6.6-1.6,9.2,0.7c1.8,1.6,1.8,4.4,4.5,4.7c1.2,0.1,2.9-1,3.3-2.1
				c0.8-1.9,0.5-3.2-1.2-4.5c-1.5-1.2-3.4-2.1-5.2-2.6c-3.8-1.2-7.5-0.6-10.9,1.4C61.2,110.9,60.8,113.7,63.4,112.3L63.4,112.3z"/>
		</g>
	</g>
	<g>
		<g>
			<path class="st5" d="M112.2,114.3c-4.4-4.8-10.5-0.5-14.6,2.6c-4.9,3.7-10.2,9.9-8,16.5c1.9,5.9,8.3,6.9,13.1,3.9
				c6.1-3.8,10.1-11.6,11-18.6c0.5-3.9-6.3,0-6.9,2.4c-0.8,3.2-1.7,6.3-3.4,9.1c-1.1,1.9-2.2,4.2-5.1,3.2c-1.2-0.4-2.4-1.8-3-2.9
				c-2.8-5.9,7.7-17.9,13.3-13.2C109.8,118.1,113.2,115.4,112.2,114.3L112.2,114.3z"/>
		</g>
	</g>
	<g>
		<g>
			<path class="st5" d="M109.6,121.1c-1.5,4.2-6.5,21.6,2.5,20.7c0.9-0.1,4.1-2.1,2.9-3.3c-1.2-1.2-2.4-1.7-2.9-3.4
				c-0.4-1.3-0.3-2.7-0.3-4c-0.1-3.6,0.1-7.3,0.4-10.9C112.3,118.5,109.8,120.3,109.6,121.1L109.6,121.1z"/>
		</g>
	</g>
	<g>
		<g>
			<path class="st5" d="M209.3,90.4c-0.7,6.2-0.7,12.6-0.9,18.9c-0.1,6.3-0.5,12.9,0.3,19.2c1.1,9.1,9.1,17,17.9,10.7
				c1.5-1.1,3.7-4.8,0.2-4.5c-10.9,1.2-11.4-10.3-11.9-18.4c-0.5-9.3,0-18.8-0.7-28.1C214.1,86,209.5,88.9,209.3,90.4L209.3,90.4z"
				/>
		</g>
	</g>
</g>
</svg>
