<?xml version="1.0" encoding="utf-8"?>
<!-- Generator: Adobe Illustrator 27.7.0, SVG Export Plug-In . SVG Version: 6.00 Build 0)  -->
<svg version="1.1" xmlns="http://www.w3.org/2000/svg" xmlns:xlink="http://www.w3.org/1999/xlink" x="0px" y="0px"
	 viewBox="0 0 419.4 212.6" style="enable-background:new 0 0 419.4 212.6;" xml:space="preserve">
<style type="text/css">
	.st0{display:none;}
	.st1{display:inline;}
	.st2{fill:none;stroke:#FFFFFF;stroke-width:0.5;stroke-miterlimit:10;}
	.st3{fill:#999999;}
	.st4{fill:#666766;}
	.st5{fill:#FFFFFF;}
</style>
<g id="Layer_1" class="st0">
</g>
<g id="Layer_3" class="st0">
	<g class="st1">
		<rect y="52.2" class="st2" width="419.4" height="116.6"/>
		<line class="st2" x1="0" y1="149.4" x2="419.4" y2="149.4"/>
		<line class="st2" x1="0" y1="130" x2="419.4" y2="130"/>
		<line class="st2" x1="0" y1="110.5" x2="419.4" y2="110.5"/>
		<line class="st2" x1="0" y1="91.1" x2="419.4" y2="91.1"/>
		<line class="st2" x1="0" y1="71.7" x2="419.4" y2="71.7"/>
		<line class="st2" x1="349.5" y1="52.2" x2="349.5" y2="168.9"/>
		<line class="st2" x1="279.6" y1="52.2" x2="279.6" y2="168.9"/>
		<line class="st2" x1="209.7" y1="52.2" x2="209.7" y2="168.9"/>
		<line class="st2" x1="139.8" y1="52.2" x2="139.8" y2="168.9"/>
		<line class="st2" x1="69.9" y1="52.2" x2="69.9" y2="168.9"/>
	</g>
</g>
<g id="Layer_4">
	<g>
		<g>
			<path class="st4" d="M333.5,79.4c-0.5-0.1-0.9-0.3-1.4-0.4c-2-0.6-4.7,1.5-4.8,3.5c-0.3,7.7,0.9,15.6,1.5,23.3
				c0.6,7.5,0.6,15.5,2.1,22.9c0.6,2.8,5.8-1.1,5.8-3.1c0.2-7.6-1.1-15.5-1.7-23.1c-0.6-7.5-0.7-15.4-2.4-22.8
				c-1.3,1.2-2.5,2.4-3.8,3.6c0.7-0.1,1.3-0.2,2-0.3C331.5,82.8,335.4,80,333.5,79.4L333.5,79.4z"/>
		</g>
	</g>
	<g>
		<g>
			<path class="st4" d="M328.6,80.1c3.2,1.7,8,0.9,11.5,0.8c3.8-0.1,7.6-0.2,11.5-0.3c8.8-0.3,18.4-0.2,26.9-2.3
				c0.9-0.2,4.7-3.2,2.2-3.5c-8-0.9-16.9,0.7-24.9,1.1c-4.8,0.2-9.5,0.4-14.3,0.5c-3.9,0.1-7.6-0.1-11.3,1.1
				C329.6,77.7,327.3,79.4,328.6,80.1L328.6,80.1z"/>
		</g>
	</g>
	<g>
		<g>
			<path class="st4" d="M382.6,78.2c-7.2,2.5-6.5,12.7-7,18.9c-0.4,4.9-0.6,9.8-0.5,14.7c0.1,4.9-0.1,10.5,1.7,15.1
				c0.7,1.6,4.1-1.2,4.3-2.3c0.9-7.6-0.7-15.6-0.5-23.3c0.1-4.2,0.4-8.4,1-12.6c0.2-1.8,0.2-7.4,1.7-8.7
				C384.3,79.1,384.2,77.6,382.6,78.2L382.6,78.2z"/>
		</g>
	</g>
	<g>
		<g>
			<path class="st4" d="M331.5,129.9c15-1.5,30.1-1.2,45.1-1c1,0,3.9-2.3,2-2.7c-14.9-2.9-30-2.2-45-0.5
				C331.7,126,328.2,130.3,331.5,129.9L331.5,129.9z"/>
		</g>
	</g>
	<g>
		<g>
			<path class="st4" d="M332.4,84c2.7,4.5,6.1,8.7,9.3,12.8c2.9,3.7,5.5,8,9.2,11c1.3,1,4.2-1.6,3.6-3c-2-4.4-5.8-8.2-8.8-12
				c-3-3.9-6.1-8-9.6-11.4C335,80.1,331.6,82.5,332.4,84L332.4,84z"/>
		</g>
	</g>
	<g>
		<g>
			<path class="st4" d="M357.1,107.3c5.5-3.2,10.4-7.4,15.4-11.3c5-3.9,10.1-7.7,14.6-12.1c1.2-1.2,0.4-2.5-1.2-1.6
				c-5.4,3.2-10.4,7.1-15.4,11c-5,3.8-10.4,7.5-14.9,12C354,106.8,355,108.5,357.1,107.3L357.1,107.3z"/>
		</g>
	</g>
	<g>
		<g>
			<path class="st4" d="M304.8,85c3.4,0.2,7.4,0.6,10.7-0.4c0.6-0.2,2.8-1.9,1.6-2.5c-1.4-0.7-3.3-0.5-4.8-0.5
				c-1.8-0.1-3.6,0.1-5.4,0.2C305.7,81.8,302.7,84.9,304.8,85L304.8,85z"/>
		</g>
	</g>
	<g>
		<g>
			<path class="st4" d="M264.2,104c6,0.3,12.3-1,18.3-1.2c6-0.1,12.1,0.7,18,0.1c1-0.1,5.5-3.4,3.2-4.3c-5.7-2.2-12.9-1.6-18.9-1.4
				c-6.2,0.2-12.7,0.6-18.6,2.5C265.4,100.1,261.3,103.8,264.2,104L264.2,104z"/>
		</g>
	</g>
	<g>
		<g>
			<path class="st4" d="M277.7,126.7c13.2-2.7,26.3-2.4,39.7-3.4c0.7-0.1,3.4-2.2,2-2.6c-12.8-3.7-27.7-1-40.3,2.2
				C277.5,123.3,274.7,127.3,277.7,126.7L277.7,126.7z"/>
		</g>
	</g>
</g>
<g id="Layer_2">
	<g>
		<g>
			<path d="M63.2,75.3c-7.6-8.7-20.5-7.9-29.6-1.8C23.4,80.4,18.4,92,18,104c-0.4,11.8,4.3,26.5,16.1,31.4
				c11.7,4.9,21.5-2.8,28.9-11.1c0.9-1-0.6-1.1-1.2-0.6c-7.6,5.8-16.8,12.6-26.1,6.4c-7.9-5.3-11.6-15.2-12.2-24.3
				c-0.6-9.4,2.4-20.2,9.7-26.6c6.7-5.9,17.2-5.4,23.9,0.4C59.1,81.5,65,77.3,63.2,75.3L63.2,75.3z"/>
		</g>
	</g>
	<g>
		<g>
			<path d="M93.4,96.9c-8.6,0.1-17.3,7.6-20.1,15.5c-3.9,11,4.6,20.5,15.8,19.5c9.3-0.8,19.7-7.3,20-17.4c0.3-10.3-8.8-17.9-19-15.4
				c-1.4,0.3-3.1,1.2-3.8,2.6c-0.4,0.8-0.9,2.5,0.6,2.4c6.8-0.2,13.8,0.4,17.4,7.1c1.7,3.2,1.6,6-0.4,9.1c-2.2,3.4-5.3,4-9.1,3.7
				c-6.6-0.5-11.8-3.6-13.1-10.3c-1.6-8,3.8-11.6,10.5-14.3C92.6,99.1,95.1,96.8,93.4,96.9L93.4,96.9z"/>
		</g>
	</g>
	<g>
		<g>
			<path d="M120.6,101.6c-1.7,3.9-0.5,7.8-0.4,12.1c0.1,5.3,0.1,11-1.7,16c-0.9,2.5,6.7,1,6.4-2.8c-0.4-4.9,0.7-10.1,0.6-15.1
				c-0.1-3.6,0.6-9.3-2.7-11.3C122.1,100,120.9,101.1,120.6,101.6L120.6,101.6z"/>
		</g>
	</g>
	<g>
		<g>
			<path d="M125.5,107.1c1.6-1.4,5.3-5,7.6-4.6c2.9,0.5,2.3,4.6,2.3,6.8c0,6.9,0.4,15-1.5,21.7c-1.3,4.7,12.5,0.7,9.6-5.1
				c-2.1-4.2-2.2-10.9-2.7-15.5c-0.3-2.8,0.2-8-2.4-10.1c-4.3-3.5-12.9,2.3-16,5.3C119.4,108.4,123.4,109,125.5,107.1L125.5,107.1z"
				/>
		</g>
	</g>
	<g>
		<g>
			<path d="M231.6,102.2c-5.9-7-15.3-0.2-20.7,4.1c-6.5,5.1-13.3,13.6-10,22.5c3,8.2,12.4,8.6,18.8,4.1c7.7-5.4,13.3-15.6,14.2-24.8
				c0.6-6-9.4,0.2-10.3,3.6c-1.3,4.8-6.6,23.6-13.6,13.1c-2.7-4.1-1-9.3,1.9-12.6c2.7-3,10-9.3,14.1-5.8
				C227.8,107.9,233.3,104.2,231.6,102.2L231.6,102.2z"/>
		</g>
	</g>
	<g>
		<g>
			<path d="M227.7,111.1c-2.1,5.6-9.3,30,3.3,28.3c1.4-0.2,6.1-3,4.4-4.9c-1.4-1.6-3-2.2-3.8-4.5c-0.6-1.9-0.4-4.1-0.5-6.1
				c-0.1-4.6,0.1-9.1,0.4-13.7C231.7,108,228.1,110.1,227.7,111.1L227.7,111.1z"/>
		</g>
	</g>
	<g>
		<g>
			<path d="M290.2,62.7c-3,17.6-2.8,35.6-3.5,53.4c-0.2,6.6-0.8,13.1,5,17.4c5.6,4.2,14,4.6,20.3,1.9c1.3-0.6,5.7-3.6,3.2-5.2
				c-2.4-1.6-5.4-1.1-8.1-1.4c-3.3-0.3-6.5-1.4-8.9-3.8c-4.5-4.7-2.6-13.9-2.5-19.8c0.2-14.9,1.1-29.9-1-44.7
				C294.5,58.5,290.4,61.5,290.2,62.7L290.2,62.7z"/>
		</g>
	</g>
	<g>
		<g>
			<path d="M277.2,104.4c5.7,1.8,11.4,1.4,17.5,1.5c6.4,0,13.5-0.5,19.8-1.7c1-0.2,4.5-2.8,2.1-3.4c-5.6-1.4-12.1-1.7-17.8-1.6
				c-6.5,0.1-12.4,0-18.7,1.4C279.4,100.7,275,103.7,277.2,104.4L277.2,104.4z"/>
		</g>
	</g>
	<g>
		<g>
			<path d="M160.4,60.9c-3,17.6-2.8,35.6-3.5,53.4c-0.2,6.6-0.8,13.1,5,17.4c5.6,4.2,14,4.6,20.3,1.9c1.3-0.6,5.7-3.6,3.2-5.2
				c-2.4-1.6-5.4-1.1-8.1-1.4c-3.3-0.3-6.5-1.4-8.9-3.8c-4.5-4.7-2.6-13.9-2.5-19.8c0.2-14.9,1.1-29.9-1-44.7
				C164.7,56.7,160.6,59.7,160.4,60.9L160.4,60.9z"/>
		</g>
	</g>
	<g>
		<g>
			<path d="M147.4,102.6c5.7,1.8,11.4,1.4,17.5,1.5c6.4,0,13.5-0.5,19.8-1.7c1-0.2,4.5-2.8,2.1-3.4c-5.6-1.4-12.1-1.7-17.8-1.6
				c-6.5,0.1-12.4,0-18.7,1.4C149.6,98.9,145.1,101.9,147.4,102.6L147.4,102.6z"/>
		</g>
	</g>
	<g>
		<g>
			<path d="M269.7,100.1c-3-4.6-8.9-3.3-13.4-1.2c-5.6,2.6-10.1,7.2-11.9,13.2c-3.5,12,6.8,27.5,20.3,25.1c1.3-0.2,5.4-2.9,3.3-4.4
				c-2.8-2.1-6.7-2.6-9.6-4.8c-3.4-2.5-5.9-6.1-6.8-10.2c-0.9-4.1-0.6-9.6,2.8-12.6c3.1-2.7,8.7-2.4,12.6-2.5
				C267.9,102.7,270.6,101.4,269.7,100.1L269.7,100.1z"/>
		</g>
	</g>
</g>
</svg>
