<?xml version="1.0" encoding="utf-8"?>
<!-- Generator: Adobe Illustrator 27.7.0, SVG Export Plug-In . SVG Version: 6.00 Build 0)  -->
<svg version="1.1" xmlns="http://www.w3.org/2000/svg" xmlns:xlink="http://www.w3.org/1999/xlink" x="0px" y="0px"
	 viewBox="0 0 419.4 212.6" style="enable-background:new 0 0 419.4 212.6;" xml:space="preserve">
<style type="text/css">
	.st0{display:none;}
	.st1{display:inline;}
	.st2{fill:none;stroke:#FFFFFF;stroke-width:0.5;stroke-miterlimit:10;}
	.st3{fill:#999999;}
	.st4{fill:#666766;}
	.st5{fill:#FFFFFF;}
</style>
<g id="Layer_1" class="st0">
	<rect x="0" y="-30.7" class="st1" width="437.1" height="283.5"/>
</g>
<g id="Layer_3" class="st0">
	<g class="st1">
		<rect x="-197" y="-30.7" class="st2" width="283.5" height="283.5"/>
		<line class="st2" x1="-197" y1="205.5" x2="86.5" y2="205.5"/>
		<line class="st2" x1="-197" y1="158.3" x2="86.5" y2="158.3"/>
		<line class="st2" x1="-197" y1="111" x2="86.5" y2="111"/>
		<line class="st2" x1="-197" y1="63.8" x2="86.5" y2="63.8"/>
		<line class="st2" x1="-197" y1="16.5" x2="86.5" y2="16.5"/>
		<line class="st2" x1="39.2" y1="-30.7" x2="39.2" y2="252.7"/>
	</g>
</g>
<g id="Layer_4">
	<g>
		<g>
			<path class="st4" d="M134.4,42.3c0.1-0.4,0.3-0.9,0.4-1.3c-1,0.3-2,0.7-3,1c-0.4,3,0.7,5.7,1,8.7c0.3,3.3,0,6.5,0.3,9.8
				c0.1,1,2.1-0.4,2.2-0.9c0.5-3.2,0.3-6.4,0.3-9.6c0-3.1,0.7-6.7-0.8-9.5c-0.6-1.1-3.3,0.9-2.8,2.1c0.1,0.3,0.2,0.6,0.4,0.9
				C132.5,44.4,134.2,42.8,134.4,42.3L134.4,42.3z"/>
		</g>
	</g>
	<g>
		<g>
			<path class="st4" d="M131.6,60.8c0.7,4,3.4,7.2,5.9,10.2c3.2,4,5.1,7.4,6.4,12.3c0.4,1.5,3.1-0.5,3.3-1.4c0.7-4.2-1.7-8-4.2-11.2
				c-3.1-3.9-6.1-7.2-8.2-11.9C134.2,57.7,131.4,59.8,131.6,60.8L131.6,60.8z"/>
		</g>
	</g>
	<g>
		<g>
			<path class="st4" d="M143.5,83.3c3,1.6,7.5,0.9,10.9,1.1c4.4,0.3,8.8,0.8,13.2,1c1.4,0,5.3-3.1,2.8-3.6c-4.5-1-9.3-1.2-13.9-1.4
				c-3.9-0.2-7.8-0.5-11.6,0.6C144.4,81.2,142.4,82.7,143.5,83.3L143.5,83.3z"/>
		</g>
	</g>
	<g>
		<g>
			<path class="st4" d="M171.4,82.2c2.2-2.3,4.4-4.5,6.7-6.7c1.5-1.3,4.5-3.1,4.9-5.1c0.1-0.3-0.2-0.3-0.4-0.3
				c-2.4,0.1-4.8,3-6.5,4.5c-2.4,2.2-4.6,4.6-6.7,7.1C168.3,83.2,170.6,83.1,171.4,82.2L171.4,82.2z"/>
		</g>
	</g>
	<g>
		<g>
			<path class="st4" d="M182.1,38.9c-1.8,4.7-1.1,10.2-1.1,15.2c0,5.6-0.8,12.3,0.5,17.8c0.4,1.6,3.1-0.6,3.3-1.5
				c1.1-5.4,0.5-11.2,0.5-16.7c0-4.5,1.3-11.9-1.1-15.7C183.8,37.3,182.3,38.4,182.1,38.9L182.1,38.9z"/>
		</g>
	</g>
	<g>
		<g>
			<path class="st4" d="M138.2,40c2.1-1.7,3-4.3,4.5-6.6c1.4-2.2,3.2-4.4,4.4-6.8c0.7-1.3-1.3-0.5-1.7-0.2c-2.2,1.9-4.1,4.6-5.6,7
				c-1,1.6-3.7,4.8-2.9,6.7C137.1,40.7,138,40.2,138.2,40L138.2,40z"/>
		</g>
	</g>
	<g>
		<g>
			<path class="st4" d="M147.6,24.7c3.7,1.4,8.3,0.8,12.2,0.8c4.4,0,8.9,0.3,13.2-0.4c0.9-0.1,4.1-2.7,2-3.1
				c-4.6-0.9-9.7-0.3-14.3-0.3c-4,0.1-8-0.1-11.8,0.9C148.5,22.8,146.6,24.4,147.6,24.7L147.6,24.7z"/>
		</g>
	</g>
	<g>
		<g>
			<path class="st4" d="M174.2,23.8c1.9,6.9,7.6,14.7,13.7,18.5c0.8,0.5,2.6-1,2.2-1.8c-1.5-3.5-3.8-6.5-6-9.6c-2.2-3-4-6.5-6.6-9.1
				C176.6,20.8,173.9,22.6,174.2,23.8L174.2,23.8z"/>
		</g>
	</g>
	<g>
		<g>
			<path class="st4" d="M138.7,37.9c0.1-0.2,0.3-0.3,0.4-0.5c0,0,0.1-0.1,0-0.2c-0.1,0-0.2,0-0.3,0.1c-0.2,0.1-0.3,0.3-0.5,0.4
				c-0.1,0-0.1,0.2,0,0.2C138.5,38.1,138.6,38,138.7,37.9L138.7,37.9z"/>
		</g>
	</g>
	<g>
		<g>
			<path class="st4" d="M136.1,42.2c0.8-0.7,1.3-1.5,1.8-2.5c0.1-0.3,0.3-0.6,0.5-0.8c0,0,0.6-0.5,0.3-0.3c0.8-0.6,4.3-1.7,3.4-3.5
				c-0.6-1.2-3.2,0.1-3.9,0.5c-0.9,0.5-1.7,1.1-2.4,1.8c-1.1,1.1-2.9,3.2-2.4,5c0.1,0.4,0.3,0.5,0.8,0.6
				C134.8,43.1,135.5,42.7,136.1,42.2L136.1,42.2z"/>
		</g>
	</g>
	<g>
		<g>
			<path class="st4" d="M148.7,48c0.1,0.3,0.2,0.6,0.3,0.9c0.1,0.4,0.3,0.6,0.7,0.6c3.7,0.5,6.3-1.1,9.8-1.5c-0.5-0.4-1-0.9-1.5-1.3
				c-1.3,4.6-1,9.6-1.4,14.4c-0.3,3.8-1.8,8.8-0.5,12.4c1,2.8,5.4-0.6,6.1-2.1c2-4.2,2-9.1,2.1-13.7c0.1-4.4,0.7-9.7-1.1-13.8
				c-0.8-1.7-4.1,1-4.6,1.6c-1.2,1.5-6.7,0.6-8.8,1.3C149.4,47,148.6,47.6,148.7,48L148.7,48z"/>
		</g>
	</g>
	<g>
		<g>
			<path class="st4" d="M156.8,34.5c0,0.1,0,0.3,0,0.4c0,0.2,0,0.4,0,0.5c-0.1,0.4,0,0.8,0.2,1.1c0.1,0.2,0.2,0.4,0.3,0.6
				c2.6-2.2,5.1-4.3,7.7-6.5c-0.3-0.2-0.5-0.3-0.8-0.4c-0.7-0.3-1.5-0.2-2.2,0c-1,0.2-2,0.7-2.8,1.3c0,0,0,0,0,0
				c0.4-0.2,0.7-0.4,1.1-0.7c0,0-0.1,0-0.1,0c0.9-0.2,1.9-0.5,2.8-0.7c-0.3-0.1-0.6-0.1-1-0.1c-1.1,0-2.3,0.6-3.2,1.3
				c-0.1,0.1-0.3,0.2-0.4,0.3c-0.4,0.3-0.7,0.6-0.9,0.9c-0.2,0.3-0.4,0.6-0.6,1c-0.1,0.2-0.2,0.5-0.3,0.7c0,0.2,0,0.4,0,0.7
				c0,0.1,0.1,0.2,0.1,0.3c0.1-0.5,0.2-1,0.3-1.5c-0.2,0.6-0.6,1.3-0.5,2c0.1,0.3,0.2,0.6,0.4,0.8c0.1,0.2,0.3,0.3,0.5,0.5
				c0.2,0.3,0.6,0.5,1,0.6c0.4,0.2,0.9,0.2,1.4,0.1c1-0.2,1.9-0.6,2.8-1.1c0.9-0.6,1.8-1.3,2.5-2.2c0.2-0.3,0.4-0.6,0.6-0.9
				c0.3-0.5,0.4-1.1,0.4-1.7c-0.1-0.2-0.1-0.4-0.2-0.6c-0.1-0.3-0.2-0.6-0.4-0.8c-0.1-0.1-0.2-0.2-0.3-0.2c-0.2-0.2-0.4-0.3-0.5-0.5
				c-0.4-0.2-0.8-0.2-1.2-0.2c-0.9,0-1.8,0.3-2.6,0.8c-0.8,0.4-1.5,0.9-2.1,1.5c-0.4,0.4-0.8,0.9-1.1,1.4
				C157.2,33.5,157,34,156.8,34.5L156.8,34.5z"/>
		</g>
	</g>
</g>
<g id="Layer_2">
	<g>
		<g>
			<path class="st5" d="M86.1,101.8c-4.6-5-11-0.5-15.3,2.7c-5.1,3.9-10.7,10.4-8.4,17.3c2,6.1,8.6,7.2,13.7,4.1
				c6.4-4,10.5-12.2,11.5-19.5c0.5-3.9-6.3,0-6.9,2.4c-0.8,3.4-1.8,6.7-3.6,9.7c-1.2,2.1-2.5,4.7-5.7,3.6c-1.3-0.4-2.6-1.9-3.2-3.1
				c-3-6.3,8.3-19.2,14.4-14.2C83.7,105.6,87.1,102.9,86.1,101.8L86.1,101.8z"/>
		</g>
	</g>
	<g>
		<g>
			<path class="st5" d="M83.5,108.8c-1.5,4.5-6.8,22.6,2.6,21.9c0.8-0.1,4.2-2.2,2.9-3.3c-2.8-2.5-3.4-4.1-3.5-7.9
				c-0.1-3.9,0.2-7.7,0.5-11.6C86.3,106.3,83.8,108.1,83.5,108.8L83.5,108.8z"/>
		</g>
	</g>
	<g>
		<g>
			<path class="st5" d="M142.4,116c5.7,2.1,14.9-2.1,15-8.9c0.1-8.2-12.9-5.6-17.2-3.4c-6.3,3.3-10,13.1-6.4,19.5
				c4.5,8.2,17,7.4,24.3,4.3c0.6-0.3,4.2-3.6,1.7-3.5c-4.5,0.1-8.7,2-13.3,1.2c-5.5-0.9-9.5-4.8-9.2-10.6c0.1-2.7,0.7-5.4,2.8-7.2
				c2-1.8,5.5-2.3,8.2-2.1c2.4,0.2,5.5,1.4,4.8,4.5c-0.7,3.2-6.7,3.1-9.2,3.7C143.3,113.8,141.2,115.6,142.4,116L142.4,116z"/>
		</g>
	</g>
	<g>
		<g>
			<path class="st5" d="M302.5,102.9c-1.2,3.5-1.9,7.2-2.3,10.9c-0.4,3.1-1,6.6-0.3,9.6c0.5,2,3.8-0.7,4-1.8
				c0.8-3.3,0.7-6.9,1.1-10.3c0.4-3.3,1.1-6.6,1.4-9.8C306.8,99,303,101.7,302.5,102.9L302.5,102.9z"/>
		</g>
	</g>
	<g>
		<g>
			<path class="st5" d="M306.5,101.7c6.8-1.9,14.5-1.5,14.5,7.4c0,6.6-2.6,12.6-3.2,19c-0.1,1.5,2.2-0.1,2.5-0.6
				c2.3-4,3.2-8.5,3.9-13c0.5-3.6,1.4-8.4-0.1-11.9c-2.9-7-11.5-5.1-17.1-3.3C305.7,99.7,304.2,102.4,306.5,101.7L306.5,101.7z"/>
		</g>
	</g>
	<g>
		<g>
			<path class="st5" d="M387.6,99c-5.2,1.2-8.7,5.3-11.3,9.8c-3,5.2-6,11.3-2.6,17c7.3,12.3,25.7,5.4,33-3.2c8.1-9.5,4-24.4-9.1-26
				c-12.4-1.5-23.8,9.4-23.5,21.6c0.1,2.5,5.5-0.8,5.7-2.5c1.1-8.6,7.1-16.5,16.6-12.9c6.8,2.5,10.9,11.5,6.5,17.8
				c-4.9,7-17.2,9.8-23,2.4c-4.7-6.1,0.7-17.2,6.9-20.3C387.9,102.1,390.6,98.3,387.6,99L387.6,99z"/>
		</g>
	</g>
	<g>
		<g>
			<path class="st5" d="M105.6,71.3c-2.1,14-2,28.3-2.5,42.5c-0.2,5.1-0.6,10,3.9,13.4c4.5,3.4,10.6,3.3,15.7,1.7
				c0.7-0.2,3.9-2.8,2.2-3.4c-4.6-1.6-10.3-0.1-13.9-4.2c-3.4-4-1.9-11.5-1.8-16.4c0.2-11.6,0.8-23.3-0.6-34.9
				C108.5,68.5,105.7,70.4,105.6,71.3L105.6,71.3z"/>
		</g>
	</g>
	<g>
		<g>
			<path class="st5" d="M95.2,104.2c4.5,1.3,9.3,1,14,1c5.1-0.1,10.5-0.4,15.5-1.2c0.7-0.1,3-2,1.4-2.3c-9-1.6-19.9-2.1-28.9-0.1
				C96.7,101.7,93.7,103.8,95.2,104.2L95.2,104.2z"/>
		</g>
	</g>
	<g>
		<g>
			<path class="st5" d="M14.1,77.7c-1.4,4.3-1.1,9.2-1.4,13.8c-0.3,4.5-0.6,9.1-0.9,13.6c-0.6,8.5-1.9,17.2-1.7,25.8
				c0.1,2.4,5.1-0.8,5.3-2.3c1.4-9,1.5-18.3,2.1-27.3c0.3-4.6,0.7-9.1,1.1-13.7c0.3-3.9,1.4-8.2,0.4-12C18.5,73,14.5,76.6,14.1,77.7
				L14.1,77.7z"/>
		</g>
	</g>
	<g>
		<g>
			<path class="st5" d="M15.9,72.6c1.9,5,9.1,2.9,13.1,3.3c5,0.5,7.2,4.1,6.1,9C33.8,90.4,29.2,93.9,25,97c-0.9,0.7-2.7,3.8-0.1,3.2
				c7.3-1.8,14.7,1.7,17.6,8.8c2.8,6.8,1.5,14.5,2.2,21.6c0.2,2.3,5.7-0.6,5.4-2.8c-1.1-8.5,0.7-18.7-4.9-25.9
				c-4.5-5.8-12.1-7.3-18.9-5.5c0.2,1,0.3,2,0.5,3c6.4-5.1,15-12.6,12.1-22c-1-3.3-3.6-4.9-7-5.3c-4.7-0.6-8.1,0.2-12.5-2
				C18.3,69.6,15.4,71.3,15.9,72.6L15.9,72.6z"/>
		</g>
	</g>
	<g>
		<g>
			<path class="st5" d="M178,102.6c-2.1-5.1-9.8,1.5-10.1,5c-0.3,3.2,1.7,5.7,4,7.7c1.9,1.6,4.3,3.1,5.6,5.3c3.3,6-3.5,7.2-7.8,7
				c-1.3-0.1-5.5,2.5-3.5,3.9c5.7,3.7,14.5-1.5,16.4-7.4c1-3.2,0.1-6.2-2.1-8.6c-1.6-1.8-3.9-3-5.5-4.9c-1.7-1.9-3.9-6,0-5.1
				C176.3,105.7,178.6,103.9,178,102.6L178,102.6z"/>
		</g>
	</g>
	<g>
		<g>
			<path class="st5" d="M238.2,102.3c-6.5,3.8-9.4,10.5-14,16.2c-3.6,4.4-10.7,7.6-14.9,1.9c-3.5-4.8-0.4-10.7,3.1-14.4
				c6.6-7,14.7-12.7,21.5-19.5c3.9-3.9,8.2-10.5,4.4-15.9c-3.6-5.2-11-2-14.7,1.5c-5.6,5.2-6.4,13.3-4.3,20.3
				c2.5,8.2,8,15.8,12.8,22.9c4.8,7.1,9.7,12.6,17.3,16.7c1.8,1,6.4-2.6,4.4-4.2c-5.8-4.7-11-11-15.3-17.1c-4.6-6.6-10-14-12.4-21.8
				c-1.1-3.6-2.1-9.4,0.2-12.9c4.2-6.5,8.6,2.2,6.4,6.4c-2,3.8-6.8,7.2-10,10.1c-3.3,3-6.5,6-9.8,9c-4.5,4.1-9.6,8.8-10.3,15.3
				c-0.6,5.4,2.3,10.6,8.1,11.2c14.5,1.5,19.3-16.1,28.2-23.4C240.3,103.2,240.3,101,238.2,102.3L238.2,102.3z"/>
		</g>
	</g>
	<g>
		<g>
			<path class="st5" d="M258.5,84c3.7,1.4,8.6,0.1,12.4-0.3c5.5-0.5,11.1-0.9,16.5-1.9c0.5-0.1,2.2-1.7,1.1-1.7
				c-4.7-0.2-9.5,0.4-14.2,0.6c-4.9,0.3-10.2,0.1-14.8,1.8C259.2,82.6,257.8,83.7,258.5,84L258.5,84z"/>
		</g>
	</g>
	<g>
		<g>
			<path class="st5" d="M276.7,85.5c-1.1,6.4-1,12.9-1,19.4c0,6.4-0.8,14.3,1.1,20.5c0.5,1.8,3.6-0.6,3.7-1.6c1-6.3,0-13,0-19.4
				c0-6.8,0.6-13.7-0.1-20.4C280.1,82.1,276.8,84.5,276.7,85.5L276.7,85.5z"/>
		</g>
	</g>
	<g>
		<g>
			<path class="st5" d="M267.4,128.8c4,0.4,8.2-0.9,12.3-1.2c4.4-0.3,8.8,0.3,13.1-0.9c0.7-0.2,2.6-1.7,1.5-2.4
				c-3.2-2.2-8.8-1.1-12.6-0.8c-4.6,0.3-9.2,0.8-13.4,2.7C267.7,126.4,265.7,128.6,267.4,128.8L267.4,128.8z"/>
		</g>
	</g>
	<g>
		<g>
			<path class="st5" d="M362.4,83c-4.5-4.2-10.9-2.9-15.6,0.6c-5.7,4.4-7.2,11.7-5.6,18.5c2.1,8.9,8.2,16.2,9.4,25.4
				c0.6,4.7,0.2,9.5-1,14.1c-1.3,4.6-4.2,8.1-5.9,12.4c-1.3,3.3,3.1,1.4,4.3,0.4c9-7.7,11.1-23.4,8.4-34.3c-1.8-7.1-6.3-13.1-8.4-20
				c-0.9-3.1-1.5-6.5-0.8-9.7c1.2-5.2,6.2-6.6,10.3-3.4C359.1,88.3,363.8,84.4,362.4,83L362.4,83z"/>
		</g>
	</g>
	<g>
		<g>
			<path class="st5" d="M336.5,115.2c3.9,0.7,7.9,0.5,11.9,0.3c3.7-0.1,7.4,0.1,11-0.4c0.9-0.1,3.8-2.4,1.8-2.9
				c-3.7-0.9-7.5-0.7-11.2-1.2c-3.6-0.4-7.1-0.6-10.7-0.3C337.8,110.9,333.5,114.7,336.5,115.2L336.5,115.2z"/>
		</g>
	</g>
</g>
</svg>
