<?xml version="1.0" encoding="utf-8"?>
<!-- Generator: Adobe Illustrator 27.7.0, SVG Export Plug-In . SVG Version: 6.00 Build 0)  -->
<svg version="1.1" xmlns="http://www.w3.org/2000/svg" xmlns:xlink="http://www.w3.org/1999/xlink" x="0px" y="0px"
	 viewBox="0 0 243 212.6" style="enable-background:new 0 0 243 212.6;" xml:space="preserve">
<style type="text/css">
	.st0{display:none;}
	.st1{display:inline;}
	.st2{fill:none;stroke:#FFFFFF;stroke-width:0.5;stroke-miterlimit:10;}
	.st3{fill:#999999;}
	.st4{fill:#666766;}
	.st5{fill:#FFFFFF;}
</style>
<g id="Layer_1" class="st0">
	<rect x="0" y="-31.2" class="st1" width="283.5" height="283.5"/>
</g>
<g id="Layer_3" class="st0">
	<g class="st1">
		<rect x="-142.7" y="-30.9" class="st2" width="283.5" height="283.5"/>
		<line class="st2" x1="-142.7" y1="205.3" x2="140.8" y2="205.3"/>
		<line class="st2" x1="-142.7" y1="158" x2="140.8" y2="158"/>
		<line class="st2" x1="-142.7" y1="110.8" x2="140.8" y2="110.8"/>
		<line class="st2" x1="-142.7" y1="63.5" x2="140.8" y2="63.5"/>
		<line class="st2" x1="-142.7" y1="16.3" x2="140.8" y2="16.3"/>
		<line class="st2" x1="93.5" y1="-30.9" x2="93.5" y2="252.5"/>
		<line class="st2" x1="46.3" y1="-30.9" x2="46.3" y2="252.5"/>
	</g>
	<g class="st1">
		<rect x="161" y="-30.7" class="st2" width="283.5" height="283.5"/>
		<line class="st2" x1="161" y1="205.5" x2="444.5" y2="205.5"/>
		<line class="st2" x1="161" y1="158.3" x2="444.5" y2="158.3"/>
		<line class="st2" x1="161" y1="111" x2="444.5" y2="111"/>
		<line class="st2" x1="161" y1="63.8" x2="444.5" y2="63.8"/>
		<line class="st2" x1="161" y1="16.5" x2="444.5" y2="16.5"/>
		<line class="st2" x1="208.3" y1="-30.7" x2="208.3" y2="252.7"/>
	</g>
</g>
<g id="Layer_4">
	<g>
		<g>
			<path class="st4" d="M138.7,50.3c-3.7-5.1-8-10.8-14.5-12.3c-5.3-1.2-11.1,0.4-14.8,4.6c-11.2,12.7,8.1,23.4,15.1,31.4
				c5.5,6.2,9.4,14,10.3,22.3c1,10.2-3.5,17.9-9.6,25.7c-5.6,7.2-11.3,14.4-16.8,21.7c-5.5,7.2-11.9,14.3-16.3,22.2
				c-1.1,1.9,2.1,0.9,2.7,0.3c5.4-5.5,9.8-12,14.5-18.2c4.7-6.2,9.5-12.4,14.1-18.6c8.1-10.7,17.1-21,15.6-35.3
				c-1.4-13.9-10.4-23-19.8-32.3c-3.6-3.6-12.6-16.8-2.8-19c7.2-1.6,13.5,6.3,17.4,11C135.3,55.3,139.9,52,138.7,50.3L138.7,50.3z"
				/>
		</g>
	</g>
	<g>
		<g>
			<path class="st4" d="M149,77.4c4.5-8,10.3-14.7,18.9-18.4c4.6-2,9.6-3.1,14.5-3.1c4.6-0.1,8.7,1.5,13.2,1.8
				c1.3,0.1,5.8-2.8,3.6-4.1c-4.5-2.7-11.5-2.3-16.6-2c-5.7,0.4-11.2,2-16.4,4.5c-9.1,4.5-17.6,12.4-21.4,21.9
				C143.7,80.9,148.2,78.8,149,77.4L149,77.4z"/>
		</g>
	</g>
	<g>
		<g>
			<path class="st4" d="M74.2,75.1c8.5-3.6,17.7-4.6,26.7-2.1c8.6,2.4,14.4,7.4,20.6,13.4c1.5,1.5,6-1.7,4.8-3.5
				c-11.2-16.5-35-18.8-51.9-11.2C72.6,72.5,71.1,76.4,74.2,75.1L74.2,75.1z"/>
		</g>
	</g>
	<g>
		<g>
			<path class="st4" d="M86,136.1c-9.2,5.6-10.5,20.2-7.4,29.4c3.9,11.7,15,19.8,26.8,22.1c29.1,5.7,52.8-19.1,65.9-41.9
				c1-1.7-0.3-2.6-1.9-2.6c-2,0.1-4.1,2-4.9,3.6c-11.1,20.3-30.4,40.9-55.9,36.7c-10.2-1.7-20.2-7.5-24.9-16.9
				c-2.4-4.9-3.3-10.6-2.7-16c0.7-5.5,3.8-9.1,5.8-13.9C87.1,135.9,86.4,135.9,86,136.1L86,136.1z"/>
		</g>
	</g>
	<g>
		<g>
			<path class="st4" d="M143.3,111.4c4.2,5.1,8.8,10,13.1,15.1c4.3,5.1,8.1,10.7,12.7,15.5c0.6,0.7,2.5-0.7,2-1.5
				c-3.3-5.7-8-10.8-12.3-15.8c-4.4-5.1-9-10-14.1-14.4C144.3,109.9,142.9,110.8,143.3,111.4L143.3,111.4z"/>
		</g>
	</g>
</g>
<g id="Layer_2">
	<g>
		<g>
			<path class="st5" d="M25.1,76.8c-1.1,8.3-0.5,17.1-0.5,25.5c0,8.9-0.4,18,0.3,26.9c0.1,1.1,2.5-0.3,2.5-1.1
				c0.5-8.5,0.3-17,0.3-25.4c0-8.7,0.9-18.2-0.5-26.8C27,74.9,25.1,76.2,25.1,76.8L25.1,76.8z"/>
		</g>
	</g>
	<g>
		<g>
			<path class="st5" d="M15.5,75.1c17.2-0.4,42.3,5.7,42.4,27.5c0,10.3-7.7,18.6-14.8,25.1C35,135,26,141.4,17.5,148.3
				c-1.4,1.1-1.4,3.2,0.8,2c10.7-5.9,20.4-13.9,29.3-22.2c7.5-7,15-15.8,15.8-26.4c0.7-9.4-4.6-18.1-12-23.5c-9.5-6.9-21.7-8-33-7.6
				C16.5,70.7,12.9,75.1,15.5,75.1L15.5,75.1z"/>
		</g>
	</g>
	<g>
		<g>
			<path class="st5" d="M104.6,103.9c-5.7-6.4-14.4,0.1-19.4,4.1c-6.1,4.8-12.4,13-9.2,21.2c2.9,7.2,11,8.2,16.9,4.1
				c7.3-5.1,12.1-14.9,13.2-23.6c0.5-3.9-6.3,0-6.9,2.4c-1.4,5.7-8.7,27.1-16.9,14.9c-3.1-4.6-0.9-10.5,2.5-14.2
				c3.3-3.6,11.4-10.4,16-6.2C102.1,107.8,105.7,105.2,104.6,103.9L104.6,103.9z"/>
		</g>
	</g>
	<g>
		<g>
			<path class="st5" d="M102.2,112.4c-1.7,5.3-8,27.7,2.8,27.5c1.1,0,5-2.2,3.1-3.5c-4.3-3.1-4.2-6.6-4.2-11.5
				c0-4.5,0.4-8.9,0.9-13.4C105,109.9,102.4,111.6,102.2,112.4L102.2,112.4z"/>
		</g>
	</g>
	<g>
		<g>
			<path class="st5" d="M207,121.8c6.9,2.2,17.6-2.3,18.1-10.4c0.6-10.4-16.2-7.2-21.6-4.3c-7.9,4.3-11.9,17.1-6.8,24.8
				c6.2,9.3,20.9,8.2,29.9,4.5c1.1-0.5,4.2-3.7,1.3-3.5c-6.5,0.4-12.6,3.2-19.3,1c-6.4-2.2-10-7.5-9.1-14.4c0.5-4,1.6-7.3,5.3-9.2
				c3-1.6,6.4-2.3,9.9-2.1c3.2,0.2,6.2,1.5,6.2,5.2c-0.1,5.9-8.3,5.1-12,6C208.4,119.5,205.7,121.3,207,121.8L207,121.8z"/>
		</g>
	</g>
	<g>
		<g>
			<path class="st5" d="M126.3,111.1c-1.5,4.4-2.3,9.1-2.8,13.8c-0.5,3.9-1.3,8.3-0.4,12.2c0.4,2,3.8-0.7,4-1.8
				c0.9-4.2,0.8-8.7,1.3-13c0.5-4.2,1.5-8.4,1.9-12.6C130.6,107.3,126.7,109.9,126.3,111.1L126.3,111.1z"/>
		</g>
	</g>
	<g>
		<g>
			<path class="st5" d="M131,109.4c9.1-2.5,19.1-1.9,18.9,9.8c-0.1,8.3-3.2,15.9-4.2,24c-0.2,1.5,2.2-0.1,2.5-0.6
				c2.7-5,3.9-10.6,4.7-16.2c0.7-4.6,1.7-10.2,0.1-14.6c-3.2-9.3-14.4-7-21.5-4.8C130.1,107.4,128.6,110.1,131,109.4L131,109.4z"/>
		</g>
	</g>
	<g>
		<g>
			<path class="st5" d="M184.3,107.4c-5.6-7.2-17.1,2.7-19.2,8.6c-3.5,10,4.8,21.3,15.5,20.4c0.8-0.1,3.7-2.2,2.2-2.9
				c-5.6-2.8-11.2-4.4-13.1-11.3c-0.9-3.2-0.8-7.3,1.4-10c2.6-3.4,7.5-3,11.3-3.1C183,109.2,184.9,108.2,184.3,107.4L184.3,107.4z"
				/>
		</g>
	</g>
</g>
</svg>
