<?xml version="1.0" encoding="utf-8"?>
<!-- Generator: Adobe Illustrator 27.1.1, SVG Export Plug-In . SVG Version: 6.00 Build 0)  -->
<svg version="1.1" id="Layer_1" xmlns="http://www.w3.org/2000/svg" xmlns:xlink="http://www.w3.org/1999/xlink" x="0px" y="0px"
	 viewBox="0 0 212.7 127.2" style="enable-background:new 0 0 212.7 127.2;" xml:space="preserve">
<style type="text/css">
	.st0{fill:#FFFFFF;stroke:#FFFFFF;stroke-miterlimit:10;}
	.st1{fill:#FFFFFF;}
	.st2{fill:#848484;}
</style>
<g>
	<g>
		<rect x="17" y="43.2" class="st0" width="62.5" height="44.7"/>
		<rect x="101.6" y="43.2" class="st0" width="41.7" height="44.7"/>
		<rect x="165.2" y="43.2" class="st0" width="33.3" height="44.7"/>
	</g>
	<g>
		<path class="st1" d="M21.1,34.7v-24h11.4c5,0,7.3,2,7.3,5.2v1.6c0,2.2-1.4,3.8-3.5,4.5v0.1c2.8,0.6,4.8,2.1,4.8,4.9v2.2
			c0,4.3-3.6,5.4-7.1,5.4H21.1z M28,15.6v4.5h2.4c1.8,0,2.4-0.9,2.4-1.8v-1.1c0-1.1-0.6-1.6-2.5-1.6H28z M28,24.7v5h3.2
			c1.8,0,2.7-0.5,2.7-1.9v-1.2c0-1.1-0.8-1.9-2.7-1.9H28z"/>
		<path class="st1" d="M44,13.5v-4h6.6v4H44z M44,34.7V16.3h6.6v18.4H44z"/>
		<path class="st1" d="M66.4,16.3h6v16.6c0,4.2-2.6,7.5-9.3,7.5c-5.4,0-7.5-1.6-7.9-4.8l6.1-0.6c0.1,0.9,0.6,1.3,1.9,1.3
			c2,0,2.7-1.2,2.7-2.5v-3c-1,1.5-2.8,2.6-5.4,2.6c-4.4,0-6.4-2.6-6.4-7.3v-2.7c0-4.7,3-7.6,7.2-7.6c2.6,0,4,1.2,4.8,2.4L66.4,16.3z
			 M63,29.2c2,0,2.7-1.6,2.7-2.6v-4.3c0-0.9-0.8-2.4-2.7-2.4c-1.9,0-2.5,1.2-2.5,2.5v4C60.6,28,61,29.3,63,29.2z"/>
		<path class="st1" d="M83.3,34.7v-24h8.4L96.5,22h0.2l5.2-11.3h8v24h-6.2V19.1h-0.1l-5.2,11.2h-3.5l-5-11.2h-0.1v15.6H83.3z"/>
		<path class="st1" d="M120,35.2c-5,0-6.1-3.3-6.1-6.4V16.3h6.6v11.2c0,1.4,0.2,2.7,1.9,2.7c1.7,0,2.7-1.1,2.7-2.7V16.3h6.6v18.4h-6
			l-0.3-2.2C124.9,33.4,123.6,35.2,120,35.2z"/>
		<path class="st1" d="M135.6,34.7V16.3h6.2l0.2,2.6c0.5-1,1.9-3.1,5.7-3.1c5,0,6.1,3.3,6.1,6.3v12.6h-6.6v-11c0-1.3-0.3-2.7-2-2.7
			c-1.8,0-2.9,1.1-2.9,2.7v11H135.6z"/>
		<path class="st1" d="M157.5,34.7V16.3h6.2l0.2,2.6c0.5-1,1.9-3.1,5.7-3.1c5,0,6.1,3.3,6.1,6.3v12.6H169v-11c0-1.3-0.3-2.7-2-2.7
			c-1.8,0-2.9,1.1-2.9,2.7v11H157.5z"/>
		<path class="st1" d="M181.5,40l1.5-5l-5.9-16.7v-2h6.2l2.9,12.7h0.2l3.3-12.7h5.9v2l-6,16l-1.8,5.7H181.5z"/>
	</g>
	<g>
		<path class="st1" d="M116.5,114.9v-22h8.4c4.3,0,6.3,2,6.3,5.1v5.3c0,2.8-2.3,5-6.5,5h-2.8v6.6H116.5z M121.9,103.9h1.9
			c1,0,1.9-0.6,1.9-1.6V99c0-0.7-0.6-1.5-1.7-1.5h-2.1V103.9z"/>
		<path class="st1" d="M132.9,114.9v-22h5.3V99c0.8-1.2,2-1.9,3.8-1.9c2.6,0,3.8,1.8,3.8,3.4v14.4h-5.3v-12.8c0-0.7-0.2-1.1-0.9-1.1
			c-0.8,0-1.3,0.6-1.3,1.4v12.5H132.9z"/>
		<path class="st1" d="M153.8,115.4c-5,0-6.3-2.6-6.3-4.3v-9.6c0-1.5,1.3-4.3,6.5-4.3c5.2,0,6.4,2.9,6.4,4.3v9.6
			C160.4,112.6,159.3,115.4,153.8,115.4z M154,112.2c0.9,0,1.2-0.5,1.2-1.2v-9.5c0-0.7-0.2-1.2-1.2-1.2c-0.8,0-1.2,0.4-1.2,1.2v9.5
			C152.8,111.8,153.1,112.2,154,112.2z"/>
		<path class="st1" d="M168.3,115.4c-4.2,0-4.9-2.2-4.9-5v-8.9h-1.8v-3.9h1.8v-3l5.3-0.6v3.6h2.8v3.9h-2.8v8.4
			c0,1.1,0.3,1.5,1.5,1.5c0.5,0,0.9,0,1.4,0l-0.2,3.8C170.4,115.3,169.3,115.4,168.3,115.4z"/>
		<path class="st1" d="M178.9,115.4c-5,0-6.3-2.6-6.3-4.3v-9.6c0-1.5,1.3-4.3,6.5-4.3c5.2,0,6.4,2.9,6.4,4.3v9.6
			C185.5,112.6,184.4,115.4,178.9,115.4z M179.1,112.2c0.9,0,1.2-0.5,1.2-1.2v-9.5c0-0.7-0.2-1.2-1.2-1.2c-0.8,0-1.2,0.4-1.2,1.2
			v9.5C177.9,111.8,178.2,112.2,179.1,112.2z"/>
		<path class="st1" d="M192.7,115.4c-4.4,0-5.8-2.3-5.8-3.8v-2.7l4.9-0.2v1.4c0,1,0.3,1.4,1.3,1.4c0.9,0,1.3-0.5,1.3-1.6
			c0-0.9-0.3-1.5-1.5-1.9l-2.4-0.8c-2.3-0.8-3.6-2.1-3.6-5.1c0-2.7,1.8-5,6.4-5c4.3,0,5.6,1.9,5.6,3.6v2.8l-4.6-0.2v-1.2
			c0-0.9-0.4-1.4-1.1-1.4c-0.9,0-1.4,0.4-1.4,1.3c0,1,0.5,1.5,1.7,2l2,0.7c2.9,0.9,3.8,2.2,3.8,4.9
			C199.4,112.9,198,115.4,192.7,115.4z"/>
	</g>
	<g>
		<g>
			<path class="st2" d="M90.2,55.2c-0.8,1-1.2,2.2-1.5,3.4c-0.2,1.4-0.3,2.9-0.3,4.4c0.1,1.4,0.3,2.9,0.7,4.3
				c0.3,0.9,0.6,1.8,1.3,2.3c0.4,0.3-0.2-0.2,0,0c0.1,0.1,0.1,0.1,0.2,0.2c0.2,0.2,0.5,0.4,0.8,0.6c0.6,0.3,1.3,0.2,1.8-0.2
				c0.4-0.4,0.6-1.3,0.2-1.8c-0.1-0.2-0.2-0.3-0.3-0.5c0.1,0.2,0.1,0.3,0,0c0,0.2,0,0.4,0.1,0.1c0-0.4-0.1-0.7-0.3-1.1
				c-0.2-0.4,0.1,0.4,0,0c-0.1-0.3-0.2-0.5-0.3-0.8c-0.2-0.5-0.3-1.1-0.4-1.7c0-0.1-0.1-0.6-0.1-0.3c0,0.3,0-0.2,0-0.3
				c0-0.3-0.1-0.6-0.1-1c-0.1-1.2-0.1-2.4,0.1-3.6c-0.1,0.5,0,0.1,0,0c0-0.1,0.1-0.3,0.1-0.4c0.1-0.2,0.1-0.5,0.2-0.7
				c0-0.1,0.1-0.2,0.1-0.3c0.1-0.3-0.2,0.4,0,0.1c0.1-0.2,0.5-0.7,0.1-0.2c0.6-0.8,0.7-1.8,0-2.6C92.2,54.5,90.9,54.4,90.2,55.2
				L90.2,55.2z"/>
		</g>
	</g>
	<g>
		<g>
			<path class="st2" d="M88.1,51.1c1.6,1.1,3.7,1.3,5.5,1.8c1.2,0.4,3,1,2.3,2.5c-1.2,3-6.8,6.5-3.4,10.1c1.1,1.1,2.6,1.4,4.1,1.5
				c0.7,0.1,1.4,0.1,2.1,0.1c0.4,0,0.7,0,1.1,0.1c0.4,0,0.2,0,0.7,0.1c0.1,0,0.2,0.1,0.3,0.1c0.5,0.2-0.3,0,0.1,0.1
				c0.3,0.1-0.2,0,0,0c-0.3,0,0-0.3,0,0c0.1-0.3,0,0.1,0,0.2c0,0.1-0.2,0.8-0.4,1c-1,2.2-2.9,4-4.7,5.7c-2.1,1.9-4.3,3.8-6.2,5.9
				c-1.9,2-5,4.5-4.9,7.6c0,1.2,1.6,1.9,2.4,1c0.9-1,1.7-2.1,2.6-3.1c1-1.1,2.1-2.2,3.1-3.3c1.8-1.9,3.8-3.6,5.7-5.4
				c1.9-1.8,3.9-3.8,5.1-6.2c0.8-1.6,1.5-3.8,0.4-5.4c-0.9-1.4-2.7-1.8-4.3-1.9c-1.5-0.2-2.8-0.1-3.9-0.4c-0.5-0.1,0.1-0.1-0.4-0.2
				c0.3,0.1,0.1,0.2,0-0.1c0.1,0.1,0.3,0.1,0.2,0.2c-0.1,0.1,0-0.4,0.1-0.5c0.1-0.4,0.4-0.8,0.6-1.1c1.2-1.8,2.9-3.5,3.3-5.7
				c0.5-2.5-1-4.6-3.2-5.6c-2-0.9-4.5-1-6.2-2.3C88.1,46.5,86.1,49.8,88.1,51.1L88.1,51.1z"/>
		</g>
	</g>
	<g>
		<g>
			<path class="st2" d="M108.8,58.5c-2.2,1.2-5.6,4.1-3.3,6.8c2.4,2.8,5.6,0.3,6.7-2.3c-1.1-0.3-2.3-0.6-3.4-0.9
				c-0.2,2.8,0.5,5.8,0.9,8.5c0.4,2.7,0.8,5.6,0.3,8.3c-0.2,1.1-0.5,2.3-1.2,3.2c-0.1,0.1-0.3,0.2-0.3,0.4c0.1-0.2,0.1,0.1,0,0
				c0,0.1,0.2-0.1,0.5-0.1c0.2,0,0.9,0.4,0.9,0.3c0,0-0.1-0.5-0.1-0.5c-0.1-0.6,0,0.2,0-0.2c-0.1-2.1,1.4-4.5,2.4-6.4
				c0.7-1.3,1.4-2.6,2.2-3.9c0.9-1.4,2.8-3.4,2.6-5.2c-0.1-1.3-1.2-1.9-2.4-1.4c-1,0.4-1.4,1.4-2,2.2c-0.6,0.8-1.2,1.6-1.8,2.5
				c-0.9,1.3-1.6,2.8-2.4,4.2c-1.4,2.7-3.2,5.9-2.5,9c0.4,1.6,1.4,3.3,3.2,3.3c1.5,0,2.7-1.4,3.4-2.6c1.7-3,1.8-6.7,1.5-10
				c-0.4-3.9-1.1-7.8-1.5-11.7c-0.2-2-2.9-2.6-3.6-0.5c-0.1,0.4-0.2,0.6-0.5,1c-0.1,0.1-0.4,0.4-0.4,0.4c0.1-0.3,0.4,0.2,0.3,0.1
				c0.3,0.1-0.3,0.4,0.2-0.1c0.2-0.2,0.4-0.5,0.6-0.7c0.4-0.4,0.9-0.8,1.5-1.1C112.3,60.3,110.7,57.5,108.8,58.5L108.8,58.5z"/>
		</g>
	</g>
	<g>
		<g>
			<path class="st2" d="M117,54c-0.1,1.7-0.3,3.3-0.2,5c0.1,0.9,0.2,1.9,0.5,2.7c0.3,0.7,1.1,2,2,2c0.6,0,0.8-0.5,0.9-1
				c0.1-0.4,0.2-0.8,0.2-1.3c0-0.8-0.1-1.6-0.2-2.5c0-1.7-0.1-3.3-0.1-5c0-0.8-0.7-1.6-1.6-1.6C117.7,52.4,117,53.1,117,54L117,54z"
				/>
		</g>
	</g>
	<g>
		<g>
			<path class="st2" d="M116.4,51.3c0.3,0.1,0,0,0.3,0.1c0,0,0.4,0.3,0.2,0.1c0.3,0.2,0.5,0.5,0.8,0.8c0.4,0.4,0.8,1.1,1.2,1.6
				c1,1.4,2.2,2.7,4,2.9c3.7,0.5,5.3-3.5,7-6c-0.7,0.2-1.5,0.4-2.2,0.6c-0.5-0.4,0,0,0,0c0,0-0.1-0.3,0,0.1c0,0.1,0.1,0.2,0.2,0.3
				c-0.1-0.2,0-0.1,0,0.1c0.2,0.5,0.3,1.3,0.4,1.6c0.2,1.2,0.1,3,0,4.4c-0.1,1.5-0.3,3-0.4,4.5c-0.1,1.1-0.5,2.8,0.2,3.8
				c0.5,0.7,1.5,0.9,2.1,0.3c0.9-0.9,0.9-2.7,1-3.9c0.3-1.7,0.3-3.5,0.4-5.2c0-2.8,0.2-6.7-2.3-8.5c-0.7-0.5-1.7-0.1-2.2,0.6
				c-0.7,1-1.4,2.3-2.1,3.1c-0.4,0.5-0.7,0.8-1.2,1c0,0-0.2,0.1-0.3,0.1c-0.3,0-0.3,0-0.5-0.1c-0.3-0.1-0.6-0.4-1.1-0.9
				c-0.4-0.4-0.7-0.9-1.1-1.4c-1-1.2-2-2.3-3.5-2.8C115.3,47.6,114.5,50.6,116.4,51.3L116.4,51.3z"/>
		</g>
	</g>
	<g>
		<g>
			<path class="st2" d="M136.2,62.9c0-0.1,0.2-1,0-0.8c0.1-0.1,0.3,0,0.5,0c1,0.4,0.7,1.1,1.5,1.9c1,1,2.9,0.9,4.1,0.3
				c0.5-0.3,1-0.8,1.5-1.2c0.1-0.1,0.4-0.3,0.5-0.5c0.2,0,0.3-0.1,0.2-0.2c-0.8-0.3-1-0.4-0.7-0.1c0.1,0.4,1.2,1.3,1.5,1.4
				c0.6,0.4,1.4,0.5,2.1,0.4c1.5-0.1,2.6-0.9,4.1-0.6c2.6,0.6,7.3,3,9.3,0.2c0.5-0.7,0.1-1.7-0.6-2.1c-0.9-0.6-1.8-0.3-2.8-0.3
				c-0.8,0-1.5-0.3-2.3-0.5c-1.6-0.5-3.2-1.2-4.8-1.1c-0.8,0-1.6,0.3-2.4,0.6c-0.9,0.3-0.6,0.4-1.2-0.3c-1.2-1.3-2.6-1.7-4.2-0.7
				c-0.6,0.4-1.1,1-1.7,1.4c-0.1,0.1-0.4,0.3-0.4,0.3c-0.1,0.2,0.6,1.1,0.7,0.7c0.1-0.5-0.7-1.5-1-1.7c-0.5-0.5-1-0.9-1.6-1.2
				c-3.2-1.5-6,0.6-5.9,4C132.7,65.2,136.2,65.2,136.2,62.9L136.2,62.9z"/>
		</g>
	</g>
	<g>
		<g>
			<path class="st2" d="M161.1,60.5c0.5,0.4,1.1,0.8,1.6,1.2c0.2,0.2,0.5,0.4,0.7,0.5c0.1,0.1,0.3,0.2,0.4,0.3
				c0.5,0.3,1,0.3,1.6,0.2c-0.1,0-0.3,0-0.4,0.1c0,0,0,0,0.1,0c-0.3-0.1-0.6-0.1-0.8-0.2c0.4,0.2,0.9,0.4,1.3,0.6
				c0.6,0.2,1.2,0.4,1.8,0.2c0.5-0.2,0.8-0.6,0.8-1.1c0-0.4-0.2-0.8-0.5-1.1c-0.3-0.3-0.8-0.6-1.1-0.9c0.1,0.1,0.2,0.2,0.3,0.2
				c-0.2-0.2-0.4-0.3-0.6-0.5c0.1,0.2,0.3,0.5,0.4,0.7c0-0.1,0-0.1,0-0.2c-0.1-0.5-0.5-0.8-0.8-1.1c-0.1-0.1-0.3-0.2-0.4-0.3
				c-0.3-0.2-0.5-0.4-0.8-0.5c-0.6-0.4-1.1-0.8-1.7-1.2c-0.4-0.3-1-0.3-1.4-0.2c-0.4,0.1-0.9,0.4-1.1,0.8c-0.2,0.4-0.3,0.9-0.2,1.4
				c0.1,0.1,0.1,0.3,0.2,0.4C160.6,60.1,160.8,60.3,161.1,60.5L161.1,60.5z"/>
		</g>
	</g>
	<g>
		<g>
			<path class="st2" d="M171.9,56.5c-1.5,1.4-2.8,3.3-4,4.9c-1.3,1.7-2.6,3.4-3.9,5.2c-1.2,1.7-2.5,3.3-3.7,5
				c-0.6,0.9-1.3,1.7-1.9,2.6c-0.7,1-1.2,1.8-1.7,3c-0.3,0.6,0.2,1.5,0.7,1.8c0.7,0.4,1.4,0.2,1.9-0.3c1.6-1.3,2.7-3.2,3.9-4.9
				c1.2-1.7,2.5-3.5,3.7-5.2c1.2-1.7,2.4-3.3,3.7-5c1.3-1.7,2.8-3.3,3.9-5C175.7,56.9,173.3,55.1,171.9,56.5L171.9,56.5z"/>
		</g>
	</g>
</g>
<g>
</g>
<g>
</g>
<g>
</g>
<g>
</g>
<g>
</g>
<g>
</g>
</svg>
