<?xml version="1.0" encoding="utf-8"?>
<!-- Generator: Adobe Illustrator 27.1.1, SVG Export Plug-In . SVG Version: 6.00 Build 0)  -->
<svg version="1.1" xmlns="http://www.w3.org/2000/svg" xmlns:xlink="http://www.w3.org/1999/xlink" x="0px" y="0px"
	 viewBox="0 0 432 288" style="enable-background:new 0 0 432 288;" xml:space="preserve">
<style type="text/css">
	.st0{display:none;}
	.st1{display:inline;}
</style>
<g id="Layer_3">
	<g>
		<g>
			<g>
				<path d="M66.9,83.6c-1.7,17-1.3,34,1.1,50.9c1.2,8.2,2.6,16.4,3.5,24.7c0.5,4.4,0.7,8.8,0.7,13.3c0,4.2-0.6,8.6,0.1,12.8
					c0.5,2.8,4,1.5,4.8-0.4c3.5-7.4,3-16.4,2.4-24.3c-0.6-8.3-1.9-16.5-3.1-24.7c-2.6-17.6-3.4-35.2-1.6-52.9
					C75.4,77.4,67.3,79.2,66.9,83.6L66.9,83.6z"/>
			</g>
		</g>
		<g>
			<g>
				<path d="M51.9,85.4c7.5-5.6,17.1-8,26.2-9.6c5-0.8,10.2-1.3,15.3-1.3c5.2-0.1,13.5-1.1,14.1,5.8c1.6,19.5-24.5,26.2-31,41.8
					c-1.1,2.6-0.1,6.3,3.5,5.8c8.6-1.2,17.4-1.7,26.1-0.9c6.9,0.6,14.3,2.3,16.3,9.9c3.6,13.4-8.3,27.4-18.3,34.6
					c-12.9,9.3-27.5,16.5-41.3,24.4c-7.1,4-14.1,8.5-21.6,11.6c-6.8,2.8-14.1,3.3-18.6,9.8c-3,4.3,0.6,9.8,5.6,6.5
					c3.4-2.2,8.1-2.8,11.9-4.4c4.5-1.9,8.7-4.1,12.9-6.5c8.5-4.8,16.9-9.8,25.3-14.7c15-8.7,30.8-16.9,42.4-30
					c9-10.2,17.6-27.6,10.1-40.9c-3.8-6.7-11.2-9.2-18.4-10c-10-1.1-20.3-0.7-30.2,0.8c1.2,1.9,2.3,3.8,3.5,5.8
					c2.4-5.8,7.7-9.3,12.3-13.3c4.2-3.7,8.2-7.7,11.4-12.4c4.8-7,11.5-22.8,2.4-29.2c-4.6-3.2-12.1-2.6-17.4-2.5
					c-6.7,0.1-13.3,1-19.9,2.4c-7.1,1.5-27.3,5.2-26,15.9C48.6,86.7,50.8,86.3,51.9,85.4L51.9,85.4z"/>
			</g>
		</g>
		<g>
			<g>
				<path d="M163.7,124.4c-5.9,0.7-12.4,2.1-16.2,7.2c-2.3,3.2-2.4,7.1-2.7,10.9c-0.2,3.2-1.7,8.3,0.3,11.1
					c4.2,5.8,13.4,0.3,16.8-3.3c5.5-5.9,8.4-14.2,9.6-22c-3,0.2-6,0.5-9,0.7c-1.7,13.4-2.6,26.9-2.3,40.4c0.1,6.4,0.6,13.1-1.5,19.2
					c-0.7,2-6,11.8-8.6,8.4c-2.4-3.3,0.7-11.2,2.3-14.3c2.4-4.6,6.1-8.4,10.5-11.1c11.1-6.7,23.2-5.6,35.3-7.6
					c1.9-0.3,6.5-4.7,2.9-6.1c-14.2-5.4-33.4-1.2-45.4,7.6c-6,4.4-11.2,10.5-14.2,17.4c-2.5,6-4.4,14.3-1.4,20.4
					c3.6,7.2,12.2,4.2,17.3,0.5c5.7-4.1,9.4-10.5,11.2-17.3c2.3-9.1,1-18.7,0.9-28c-0.1-10.1,0.5-20.2,1.8-30.3
					c0.8-6.3-8.2-4.1-9,0.7c-0.6,4.2-1.7,8.2-3.6,11.9c-0.8,1.5-1.6,3.2-2.8,4.5c-0.9,1.2-2.2,1.9-3.7,2.1c0.5,0.4,0.6,0.1,0.3-0.8
					c-0.7-2.2-0.3-10.8,0.9-12.9c1.8-3.1,6.5-3.8,9.7-4.5C165.6,128.7,167,124,163.7,124.4L163.7,124.4z"/>
			</g>
		</g>
		<g>
			<g>
				<path d="M214.7,86.4c-1.3,10.1-1.8,20.2-3,30.3c-0.6,4.9-1.2,9.7-1.9,14.6c-0.7,4.5-2.2,9.6-1.4,14.2c0.5,3.2,4.5,1.6,5.5-0.4
					c2-4.4,2.4-9.5,3.1-14.3c0.7-5.2,1.4-10.3,1.9-15.5c1.1-9.9,2.3-20,2.1-30C220.8,81.3,215,83.6,214.7,86.4L214.7,86.4z"/>
			</g>
		</g>
		<g>
			<g>
				<path d="M218.1,74.6c1.1,6.8,3.9,13.2,7.5,18.9c2.8,4.5,7,12.1,13.3,10.6c2.5-0.6,4.3-2.3,6-4.2c3.1-3.4,6-6.9,9-10.3
					c5.6-6.4,11.1-12.8,16.7-19.1c-2.8-0.1-5.7-0.3-8.5-0.4c0.9,12.3,1.1,24.7,0.3,37.1c-0.4,6.1-1,12.1-1.8,18.2
					c-0.7,5.4-2.8,11.9-1.2,17.2c1.1,4,6.4,0.4,7.5-1.5c3.2-5.2,3.4-12.4,4.1-18.4c0.7-5.9,1.2-11.8,1.5-17.7
					c0.7-12.6,0.4-25.3-0.6-37.9c-0.4-5-6.4-2.9-8.5-0.4c-7.9,9.1-15.7,18.2-23.6,27.3c-0.4,0.5-0.8,1-1.3,1.5c-0.9,1-0.8,1,0.2,0
					c1-0.4,1.1-0.8,0.3-1.4c-0.6-0.6-1.1-1.3-1.6-1.9c-1.7-2-3.2-4.2-4.5-6.4c-2.8-4.7-4.4-9.7-6.2-14.9
					C225,66.4,217.5,70.8,218.1,74.6L218.1,74.6z"/>
			</g>
		</g>
		<g>
			<g>
				<path d="M290.7,128.7c-1,3.2-2,7.4-0.2,10.5c1.7,3.1,5.5,3.8,8.7,3c3.9-0.9,6.6-3.8,9-6.8c2.6-3.3,6.9-7.2,7.6-11.5
					c0.4-2.6-2.1-3.3-4.1-2.3c-4.8,2.5-6.9,8.2-10.5,12c-2.5,2.7-4.4,1.7-5.1-1.6c-0.4-2-0.3-3.5-1.9-4.9
					C293,125.9,291.2,127.3,290.7,128.7L290.7,128.7z"/>
			</g>
		</g>
		<g>
			<g>
				<path d="M327.2,124.5c-2,2.1-2.6,4.5-3.4,7.2c-0.6,2.1-1.7,5-0.9,7.1c0.5,1.4,2.5,1,3.4,0.2c1.9-1.9,2.7-4.4,3.6-6.9
					c0.7-2.3,2-4.9,1.3-7.3C330.6,123,328.2,123.5,327.2,124.5L327.2,124.5z"/>
			</g>
		</g>
		<g>
			<g>
				<path d="M325.5,122.7c1.3,2.9,5,2.3,7.8,2.2c3.5-0.1,7.1-0.1,10.5-1c-0.9-0.5-1.7-1-2.6-1.4c-0.3,4.4-2,8.4-1.5,12.9
					c0.1,1.4,1.8,0.5,2.2-0.2c2.6-4.3,3-8.9,4.2-13.7c0.2-0.7-0.1-1.6-0.8-1.9c-2.8-1.5-6.4-1.9-9.5-2.1c-3.3-0.2-6.8-0.5-9.3,2
					C325.9,120.3,325,121.6,325.5,122.7L325.5,122.7z"/>
			</g>
		</g>
		<g>
			<g>
				<path d="M356.6,123.1c-1.7,1.8-3.1,3.8-4.4,5.9c-1.1,1.9-2.8,4.5-1.4,6.5c0.8,1.2,2.6,0.3,3.4-0.3c1.8-1.3,2-3.5,2.8-5.4
					c0.8-1.8,1.8-3.4,3-5c0.7-0.9,0.9-2.3-0.2-2.9C358.7,121.4,357.4,122.3,356.6,123.1L356.6,123.1z"/>
			</g>
		</g>
		<g>
			<g>
				<path d="M355.3,124.3c1.9,0.4,3.8-0.2,5.7,0c2.2,0.2,3.7,1.3,5.2,2.9c1.4,1.5,2.4,3.2,1.5,5.3c-0.8,1.7-2.3,2.8-3.1,4.5
					c-0.6,1.3,0.4,2.7,1.8,2.1c5.6-2.1,9.4-9.2,6.4-14.7c-1.4-2.6-3.9-5.4-6.6-6.8c-3.1-1.5-7.5-0.8-10.5,0.7
					C353.8,119.5,352,123.7,355.3,124.3L355.3,124.3z"/>
			</g>
		</g>
		<g>
			<g>
				<path d="M380,121.8c0,0,0.2,1.8,0.4,2.4c0.6,2.1,0.9,4.4,1.4,6.5c0.8,3.6,1.2,8,3.5,10.9c1.5,1.9,4.8-0.4,5.1-2.3
					c0.5-3.3-0.3-6.5-1.1-9.6c-0.8-3.3-1.3-7.1-2.7-10.3c-0.5-1-1.5-1.6-2.6-1.4C382.2,118.3,379.4,119.5,380,121.8L380,121.8z"/>
			</g>
		</g>
		<g>
			<g>
				<path d="M402.8,116c-2.9,5.1-4.6,10.9-7.1,16.2c-2.6,5.5-5.5,10.8-8.7,16c-3,4.7-6.2,9.2-9.5,13.7c-3.3,4.6-8,8.6-10.7,13.6
					c-1.2,2.3,1.3,3.7,3.2,2.6c4.9-2.9,8.7-8.3,12.4-12.6c4.1-4.7,7.5-9.8,10.8-15.2c3.2-5.2,6.1-10.6,8.7-16.1
					c2.6-5.5,5.7-11.8,6.4-17.9C408.8,112.4,404.1,113.8,402.8,116L402.8,116z"/>
			</g>
		</g>
	</g>
</g>
</svg>
