<?xml version="1.0" encoding="utf-8"?>
<!-- Generator: Adobe Illustrator 27.7.0, SVG Export Plug-In . SVG Version: 6.00 Build 0)  -->
<svg version="1.1" xmlns="http://www.w3.org/2000/svg" xmlns:xlink="http://www.w3.org/1999/xlink" x="0px" y="0px"
	 viewBox="0 0 155 212.6" style="enable-background:new 0 0 155 212.6;" xml:space="preserve">
<style type="text/css">
	.st0{display:none;}
	.st1{display:inline;}
	.st2{fill:none;stroke:#FFFFFF;stroke-width:0.5;stroke-miterlimit:10;}
	.st3{fill:#999999;}
	.st4{fill:#666766;}
	.st5{fill:#FFFFFF;}
</style>
<g id="Layer_1" class="st0">
	<rect x="0" y="-35.9" class="st1" width="283.5" height="283.5"/>
</g>
<g id="Layer_3" class="st0">
</g>
<g id="Layer_4" class="st0">
	<g class="st1">
		<g>
			<path class="st3" d="M32.3,142.2c-6.4,4.4-9.8,13.7-5,20.6c4.5,6.4,13,6.7,18.8,2c7.5-6,5.3-15-0.5-21.5
				c-2.5-2.7-5.5-4.3-9.2-3.4c-3,0.7-5.6,2.6-6.1,5.7c-0.3,1.9,2.6,0.1,3.1-0.5c2.8-3.3,7.8,1.3,9.6,3.5c3.4,4.5,6.4,14.2-2.1,15.3
				c-4.4,0.6-8.4-2.6-10.1-6.5c-2.2-5-0.2-10,3.4-13.8C35.8,141.9,34,141.1,32.3,142.2L32.3,142.2z"/>
		</g>
	</g>
	<g class="st1">
		<g>
			<path class="st3" d="M51.1,124.8c-3.6,5.2-5.8,11.7-8.2,17.5c-2.3,5.7-5.4,11.8-6.5,17.9c-0.4,2.1,3.1-0.1,3.5-0.9
				c2.8-5.8,4.5-12.4,6.9-18.4c2.1-5.3,5.3-10.8,6.5-16.5C53.5,123.1,51.4,124.3,51.1,124.8L51.1,124.8z"/>
		</g>
	</g>
	<g class="st1">
		<g>
			<path class="st3" d="M53.4,132.4c5.2,0.7,10.7,0.1,15.9-0.1c5.1-0.2,10.1-0.3,15.2-1.4c0.4-0.1,2-1.3,0.9-1.5
				c-5.1-1-10.3-0.5-15.5-0.4c-5,0.2-10,0.1-14.9,0.9C54.2,130.1,51.7,132.2,53.4,132.4L53.4,132.4z"/>
		</g>
	</g>
	<g class="st1">
		<g>
			<path class="st3" d="M91.7,140.6c-6.1,1-10.9,6.8-10.1,13.1c1.1,8.3,10.1,11.9,17.4,9.5c6.1-2,11.7-8.2,8.6-14.8
				c-3.1-6.7-12-11.6-18.3-6.4c-0.6,0.5-2,2.6-0.1,2.3c4.1-0.7,8.1,0.6,11,3.5c3.1,3.2,5.5,9.5-0.4,11.4c-4.2,1.4-9.1-0.3-11.7-3.8
				c-2.9-4-2.6-10.1,2.5-12.2C91.5,142.9,93.9,140.2,91.7,140.6L91.7,140.6z"/>
		</g>
	</g>
	<g class="st1">
		<g>
			<path class="st3" d="M49.9,141.3c7.4,3,15.5,4.6,23,7.3c3.7,1.4,7.3,2.8,10.9,4.4c3.5,1.5,6.9,3.8,10.7,4.3
				c0.9,0.1,3.5-1.4,2.6-2.5c-2.2-2.8-6.3-3.9-9.5-5.4c-3.9-1.7-7.8-3.3-11.9-4.7c-7.4-2.6-15.6-5.5-23.5-6
				C51.4,138.7,48.5,140.8,49.9,141.3L49.9,141.3z"/>
		</g>
	</g>
	<g class="st1">
		<g>
			<path class="st3" d="M83.2,120.5c-0.7,5.4-0.3,10.9-0.2,16.3c0.2,5.4-0.7,12.3,1.2,17.3c0.6,1.6,3.3-0.5,3.6-1.6
				c1.1-5.2,0-10.9-0.3-16.1c-0.4-5.7-0.4-11.5-1.8-17C85.4,118.2,83.3,119.7,83.2,120.5L83.2,120.5z"/>
		</g>
	</g>
	<g class="st1">
		<g>
			<path class="st3" d="M80.1,122.9c3.9,0,7.9,0.1,11.8,0c1,0,2-0.5,2.6-1.3c0.3-0.4,1.1-1.6,0.3-1.9c-2.6-0.8-5.1-1.1-7.8-0.7
				c-0.4,1-0.7,2-1.1,3c2.2-0.6,4.1-1.7,5.3-3.7c0-0.1,0.1-0.3,0-0.4c-0.7-0.6-1.1-0.9-2.1-0.8c-0.9,0.1-3.3,1.6-2.7,2.8
				c0.7,1.3,2.9-0.3,3.4-1c0.1,0,0.2,0.1,0.4,0.1c0.1-0.4,0.3-0.8,0.4-1.2c-1.2,0.4-2.4,0.9-3.6,1.2c-0.9,0.2-2.1,0.8-2.5,1.8
				c-0.3,0.8,0,1.4,0.9,1.3c2.1-0.2,4.1,0.1,6,0.8c1-1.1,1.9-2.2,2.9-3.2c-4,0-7.9,0.1-11.9,0.2c-1,0-2.1,0.6-2.7,1.4
				C79.4,121.7,79,122.9,80.1,122.9L80.1,122.9z"/>
		</g>
	</g>
	<g class="st1">
		<g>
			<path class="st3" d="M44.9,119.9c6.3,6.2,12.7,12.3,19.8,17.6c1.1,0.8,4.3-1.6,3.3-2.8c-5.3-6.8-11.5-12.7-17.8-18.6
				C48.5,114.3,43.3,118.3,44.9,119.9L44.9,119.9z"/>
		</g>
	</g>
	<g class="st1">
		<g>
			<path class="st3" d="M51.4,61.4c4.8,5.1,8.3,13.7,16.6,12.7c9.2-1.1,15.3-10,21.7-15.7c1.2-1.1,1.1-3.2-0.9-2.3
				c-6.9,2.9-11,12.7-18.5,13.4c-7.8,0.7-8.5-9.2-14.9-11.3C54.1,57.8,50.1,60,51.4,61.4L51.4,61.4z"/>
		</g>
	</g>
	<g class="st1">
		<g>
			<path class="st3" d="M92.6,53.7c2.2,4.6,7.7,14.6,14.1,12.5c2.5-0.8,4.1-3,5.8-4.8c2.7-3.1,5.8-6,7.8-9.6
				c1.1-1.9-1.8-1.4-2.7-0.7c-3.4,2.8-5.8,7.4-9.4,9.9c-2.5,1.7-4.4-1.6-6-3.4c-1.9-2.3-3.6-4.7-5.5-6.9
				C95.5,49.2,91.8,52,92.6,53.7L92.6,53.7z"/>
		</g>
	</g>
	<g class="st1">
		<g>
			<path class="st3" d="M24.9,53.4c4.3,4.8,11.7,13.9,18.9,9.5c3.3-2.1,5.7-5.6,8.3-8.6c3.4-3.9,7.5-7.7,9.7-12.4
				c0.7-1.4-1.3-1-1.9-0.5c-5.2,3.8-9.1,9.1-13.3,14c-0.8,0.9-2.4,3.6-3.5,4c-1.6,0.5-3.3-1-4.4-1.8c-3.2-2.2-6-4.8-8.7-7.7
				C28.2,48.2,23.5,51.8,24.9,53.4L24.9,53.4z"/>
		</g>
	</g>
</g>
<g id="Layer_2">
	<g>
		<g>
			<path class="st5" d="M48.9,77c-5.6,9.9-9.8,20.8-14.2,31.2c-2.1,5.1-4.2,10.1-6.3,15.2c-1.9,4.7-4.8,9.7-5.5,14.8
				c-0.4,2.5,3.5-0.2,4-1c2.9-4.6,4.4-10.3,6.5-15.3c2.2-5.4,4.3-10.7,6.6-16.1c4-9.8,8.8-19.4,11.9-29.5
				C52.3,74.6,49.2,76.4,48.9,77L48.9,77z"/>
		</g>
	</g>
	<g>
		<g>
			<path class="st5" d="M52.9,88.8c-1.2,6.5,1.9,13.8,4.1,19.8c2.1,5.7,4.5,13.6,8.8,17.9c1.3,1.3,4.9-1.1,4.5-2.8
				c-1.5-6-5.5-11.7-7.9-17.5c-1.4-3.4-2.7-6.9-3.9-10.4c-1-2.9-1.6-5.8-3.7-8.1C54.3,87.2,53,88.2,52.9,88.8L52.9,88.8z"/>
		</g>
	</g>
	<g>
		<g>
			<path class="st5" d="M45.6,117.4c5.1-0.6,10.7-0.7,15.7-2.2c0.6-0.2,2.7-2.2,1.1-2.3c-5-0.4-10.6,1.2-15.6,1.9
				C45.7,115,43.6,117.6,45.6,117.4L45.6,117.4z"/>
		</g>
	</g>
	<g>
		<g>
			<path class="st5" d="M88.3,79.2c-1.5,6.8-1.7,14.1-2.3,21c-0.6,6.3-1.6,12.6-1.9,18.9c-0.5,9.5,3.6,21.1,15.1,19.7
				c1.9-0.2,4.4-1.9,5.1-3.7c0.6-1.6,0.1-3-1.9-2.6c-12.4,2.4-13.2-14.2-12.9-22.3c0.3-10.4,2.2-21.6,1.1-32
				C90.5,77.1,88.5,78.6,88.3,79.2L88.3,79.2z"/>
		</g>
	</g>
	<g>
		<g>
			<path class="st5" d="M114.3,79.9c-0.8,7.3-0.8,14.8-0.9,22.1c-0.1,7.5-0.4,15.2,0.4,22.7c0.6,5.5,2.5,11.2,7.5,14.2
				c4.3,2.6,9.3,2.2,13.2-0.7c1.4-1.1,3.8-4.9,0.2-4.5c-5.2,0.6-9.1-0.5-11.7-5.4c-2.6-4.8-2.5-10.8-2.8-16.1
				c-0.6-11.5,0.1-23-0.8-34.5C119,75.5,114.4,78.4,114.3,79.9L114.3,79.9z"/>
		</g>
	</g>
</g>
</svg>
