<?xml version="1.0" encoding="utf-8"?>
<!-- Generator: Adobe Illustrator 27.7.0, SVG Export Plug-In . SVG Version: 6.00 Build 0)  -->
<svg version="1.1" xmlns="http://www.w3.org/2000/svg" xmlns:xlink="http://www.w3.org/1999/xlink" x="0px" y="0px"
	 viewBox="0 0 435 212.6" style="enable-background:new 0 0 435 212.6;" xml:space="preserve">
<style type="text/css">
	.st0{display:none;}
	.st1{display:inline;}
	.st2{fill:none;stroke:#FFFFFF;stroke-width:0.5;stroke-miterlimit:10;}
	.st3{fill:#999999;}
	.st4{fill:#666766;}
	.st5{fill:#FFFFFF;}
</style>
<g id="Layer_1" class="st0">
	<rect x="0" y="-31.2" class="st1" width="435" height="283.5"/>
</g>
<g id="Layer_3" class="st0">
	<g class="st1">
		<rect x="0" y="-31.2" class="st2" width="283.5" height="283.5"/>
		<line class="st2" x1="0" y1="205.1" x2="283.5" y2="205.1"/>
		<line class="st2" x1="0" y1="157.8" x2="283.5" y2="157.8"/>
		<line class="st2" x1="0" y1="110.6" x2="283.5" y2="110.6"/>
		<line class="st2" x1="0" y1="63.3" x2="283.5" y2="63.3"/>
		<line class="st2" x1="0" y1="16.1" x2="283.5" y2="16.1"/>
		<line class="st2" x1="236.2" y1="-31.2" x2="236.2" y2="252.3"/>
		<line class="st2" x1="189" y1="-31.2" x2="189" y2="252.3"/>
		<line class="st2" x1="141.7" y1="-31.2" x2="141.7" y2="252.3"/>
		<line class="st2" x1="94.5" y1="-31.2" x2="94.5" y2="252.3"/>
		<line class="st2" x1="47.2" y1="-31.2" x2="47.2" y2="252.3"/>
	</g>
	<g class="st1">
		<rect x="303.7" y="-30.9" class="st2" width="283.5" height="283.5"/>
		<line class="st2" x1="303.7" y1="205.3" x2="587.2" y2="205.3"/>
		<line class="st2" x1="303.7" y1="158" x2="587.2" y2="158"/>
		<line class="st2" x1="303.7" y1="110.8" x2="587.2" y2="110.8"/>
		<line class="st2" x1="303.7" y1="63.5" x2="587.2" y2="63.5"/>
		<line class="st2" x1="303.7" y1="16.3" x2="587.2" y2="16.3"/>
		<line class="st2" x1="398.2" y1="-30.9" x2="398.2" y2="252.5"/>
		<line class="st2" x1="351" y1="-30.9" x2="351" y2="252.5"/>
	</g>
</g>
<g id="Layer_4" class="st0">
	<g class="st1">
		<g>
			<path class="st4" d="M111,120.7c3.6-5.1,6-10.2,11.8-13.4c5.2-2.8,11.2-3.9,16.9-5c12.4-2.3,24.8-4.6,37.1-6.8
				c2-0.4,5.5-5,2.2-4.4c-15.5,3-31.6,5-46.8,9.2c-5.9,1.6-11.6,4.2-16.2,8.3c-3.5,3.1-7.7,7.9-7.9,12.8
				C108,122.9,110.7,121.1,111,120.7L111,120.7z"/>
		</g>
	</g>
	<g class="st1">
		<g>
			<path class="st4" d="M181.6,94c10.3-9.5,22.1-16.1,36.4-17.1c13.6-0.9,27.6,3.5,38.4,11.7c1.1,0.8,4.3-1.8,2.9-2.8
				c-23.9-18-60.3-16.2-80,7.5C177.7,95.3,180.7,94.9,181.6,94L181.6,94z"/>
		</g>
	</g>
	<g class="st1">
		<g>
			<path class="st4" d="M255.7,95.3c6.2,0,12.5-0.5,18.7-0.9c6.3-0.4,13-0.1,19-1.8c0.8-0.2,3.1-2.3,1.3-2.7
				c-5.4-1.2-12,0.2-17.4,0.6c-6.5,0.4-13,0.6-19.4,1.5C256.7,92,253.5,95.2,255.7,95.3L255.7,95.3z"/>
		</g>
	</g>
	<g class="st1">
		<g>
			<path class="st4" d="M289.5,96c-0.5,7.4-1.2,17,2.2,23.8c0.7,1.3,3.1-1.1,3.1-1.9c0.2-7.8-1.6-15.7-1.4-23.6
				C293.4,92.7,289.6,94.7,289.5,96L289.5,96z"/>
		</g>
	</g>
	<g class="st1">
		<g>
			<path class="st4" d="M274.1,126.5c2.9-0.7,5.6-1.8,8.5-2.3c3.2-0.6,6.3-0.9,9.5-1.4c0.5-0.1,3.3-2.1,1.9-2.5
				c-5.9-1.9-14-0.1-19.2,3.1C274,123.7,271.4,127.1,274.1,126.5L274.1,126.5z"/>
		</g>
	</g>
	<g class="st1">
		<g>
			<path class="st4" d="M116.4,131.2c8.9,0.6,18.5,0.8,27.3-0.7c0.7-0.1,3.2-2.1,1.5-2.4c-8.3-1.8-18-1.2-26.5-0.6
				C117.5,127.5,114.1,131,116.4,131.2L116.4,131.2z"/>
		</g>
	</g>
	<g class="st1">
		<g>
			<path class="st4" d="M181.8,129c7,0.5,14.2,0.2,21.2,0.1c6.7-0.1,13.6,0.2,20.2-0.6c0.8-0.1,3.6-2.4,1.7-2.7
				c-6.7-1.1-14-0.6-20.8-0.7c-6.6-0.1-13.3-0.2-20,0.2C182.8,125.3,179.4,128.8,181.8,129L181.8,129z"/>
		</g>
	</g>
	<g class="st1">
		<g>
			<path class="st4" d="M138.6,112.8c10.7,0.1,21.6-1.1,32.2-1.8c11.2-0.7,23.3-0.4,34.2-2.7c0.8-0.2,4.1-2.9,1.9-3.1
				c-4.9-0.4-10,0.5-14.9,0.8c-5.9,0.4-11.7,0.9-17.6,1.3c-11.4,0.9-23.1,1.3-34.4,3C139.4,110.5,137,112.8,138.6,112.8L138.6,112.8
				z"/>
		</g>
	</g>
	<g class="st1">
		<g>
			<path class="st4" d="M231.1,94.9c-1.5,10.3-3.7,20.7-3.8,31.2c0,0.6,1.3-0.2,1.3-0.6c2.1-10.1,2.4-20.6,3.2-30.9
				C231.9,94.2,231.1,94.7,231.1,94.9L231.1,94.9z"/>
		</g>
	</g>
	<g class="st1">
		<g>
			<path class="st4" d="M313.9,132.6c10.3-2.4,20.5-7.6,30.4-11.4c10.3-3.9,20.8-7.5,30.8-12.1c1.1-0.5,2.1-2.5,0.1-2
				c-10.6,2.7-20.9,7.1-31.1,11c-9.8,3.8-20.5,7-29.7,12.2C313.8,130.5,311.9,133.1,313.9,132.6L313.9,132.6z"/>
		</g>
	</g>
	<g class="st1">
		<g>
			<path class="st4" d="M333.9,135c14.6-4.7,30.2-8.5,44.2-14.7c0.9-0.4,2.7-3.1,0.6-2.7c-7.2,1.6-14.3,4.5-21.3,6.8
				c-7.6,2.5-15.2,5.2-22.8,7.9C333.1,132.7,331.4,135.8,333.9,135L333.9,135z"/>
		</g>
	</g>
	<g class="st1">
		<g>
			<path class="st4" d="M371.6,136.9c8.8-4.8,18.1-7.2,27.3-10.8c1.1-0.4,4.2-3.7,1.3-3.5c-10,0.8-20.5,6.4-29,11.3
				C369,135.2,368.5,138.6,371.6,136.9L371.6,136.9z"/>
		</g>
	</g>
</g>
<g id="Layer_2">
	<g>
		<g>
			<path class="st5" d="M7.2,132.7c5.8-11.6,9.7-24.3,14.6-36.3C26.3,85.1,32,73.6,34.9,61.7c0.6-2.6-3.9,0.1-4.4,1.1
				c-5.6,11-9.2,23.2-13.4,34.8c-4.3,11.8-9.9,23.7-13,35.9C3.7,135.2,6.9,133.4,7.2,132.7L7.2,132.7z"/>
		</g>
	</g>
	<g>
		<g>
			<path class="st5" d="M33.5,65.7C33.2,78,36.2,91.1,38.7,103c2.5,12.2,5.4,24.6,9.2,36.5c0.6,1.9,4.7-0.7,4.2-2.2
				c-4-11.9-7.6-23.7-10.2-36c-1.2-5.8-2.2-11.7-3.1-17.6c-0.9-6.4-1.2-13.1-2.6-19.4C35.9,63.1,33.6,64.9,33.5,65.7L33.5,65.7z"/>
		</g>
	</g>
	<g>
		<g>
			<path class="st5" d="M19.4,108.3c2.5,0,5.6,0.1,7.9-1.1c0.6-0.3,2.4-1.8,1.2-2.5c-1-0.6-2.4-0.1-3.4,0.1c-1.3,0.2-2.7,0.5-4,0.8
				c-0.8,0.2-1.7,0.7-2.1,1.4C18.8,107.4,18.6,108.3,19.4,108.3L19.4,108.3z"/>
		</g>
	</g>
	<g>
		<g>
			<path class="st5" d="M68.9,111.5c-1.4,10.2-1.4,24.4,11.5,26.5c1.1,0.2,2.7-1,3.1-1.9c2.9-7.9,6.6-17.4,6-25.9
				c-0.1-1.9-3.4,0.8-3.6,1.6c-2.7,8.2-3.7,17-6.2,25.3c1.1-0.8,2.2-1.6,3.2-2.3c-11.2-1.7-11.9-15.2-11.9-24.1
				C71.1,109.6,69,110.8,68.9,111.5L68.9,111.5z"/>
		</g>
	</g>
	<g>
		<g>
			<path class="st5" d="M108.7,72.2c-2.1,15.7-2.1,31.6-2.6,47.4c-0.2,5.8-0.8,11.7,4.4,15.7c4.9,3.7,11.9,3.8,17.5,2
				c0.7-0.2,4-2.8,2.2-3.4c-5.2-1.7-11.5,0.1-15.7-4.5c-4.1-4.5-2.4-13.1-2.3-18.7c0.2-13.3,0.9-26.6-0.4-39.8
				C111.6,69.5,108.8,71.4,108.7,72.2L108.7,72.2z"/>
		</g>
	</g>
	<g>
		<g>
			<path class="st5" d="M97.2,109.6c10.1,2.4,22.8,1.1,33-0.3c0.7-0.1,3-2,1.4-2.3c-10.4-1.7-22.4-2-32.8-0.1
				C98,107,95.3,109.1,97.2,109.6L97.2,109.6z"/>
		</g>
	</g>
	<g>
		<g>
			<path class="st5" d="M155.6,107c-8.8,2.1-18.3,16.9-12.7,25.3c7.1,10.6,23,4.6,29.9-2.9c7.9-8.6,4.8-22.9-7.7-24.6
				c-11.6-1.6-22.5,8.7-22.1,20.1c0.1,2.5,5.4-0.8,5.7-2.5c1-7.9,6.5-15,15.3-11.4c6,2.5,9.5,10.8,5.2,16.3
				c-4.5,5.8-14.7,8.1-19.9,2.1c-4.8-5.4-0.1-15.8,5.7-18.8C155.9,110.1,158.6,106.3,155.6,107L155.6,107z"/>
		</g>
	</g>
	<g>
		<g>
			<path class="st5" d="M250.3,107c-8.8,2.1-18.3,16.9-12.7,25.3c7.1,10.6,23,4.6,29.9-2.9c7.9-8.6,4.8-22.9-7.7-24.6
				c-11.6-1.6-22.5,8.7-22.1,20.1c0.1,2.5,5.4-0.8,5.7-2.5c1-7.9,6.5-15,15.3-11.4c6,2.5,9.5,10.8,5.2,16.3
				c-4.5,5.8-14.7,8.1-19.9,2.1c-4.8-5.4-0.1-15.8,5.7-18.8C250.6,110.1,253.3,106.3,250.3,107L250.3,107z"/>
		</g>
	</g>
	<g>
		<g>
			<path class="st5" d="M287.4,70.2c-2.1,15.7-2.1,31.6-2.6,47.4c-0.2,5.8-0.8,11.7,4.4,15.7c4.9,3.7,11.9,3.8,17.5,2
				c0.7-0.2,4-2.8,2.2-3.4c-5.2-1.7-11.5,0.1-15.7-4.5c-4.1-4.5-2.4-13.1-2.3-18.7c0.2-13.3,0.9-26.6-0.4-39.8
				C290.4,67.5,287.6,69.3,287.4,70.2L287.4,70.2z"/>
		</g>
	</g>
	<g>
		<g>
			<path class="st5" d="M275.9,107.5c10.1,2.4,22.8,1.1,33-0.3c0.7-0.1,3-2,1.4-2.3c-10.4-1.7-22.4-2-32.8-0.1
				C276.8,105,274.1,107.1,275.9,107.5L275.9,107.5z"/>
		</g>
	</g>
	<g>
		<g>
			<path class="st5" d="M320.8,115.8c3-0.7,5.4-2,7.7-4c-1.2,0-2.5,0.1-3.7,0.1c-0.7,4-1.5,7.9-2.2,11.8c-0.5,2.9-1.5,6.2-0.2,9
				c2.6,5.6,10.2,5,14.9,3c0.7-0.3,4.6-3.9,1.9-3.9c-5.8,0.1-13.2,1.8-12.3-6.8c0.5-4.9,1.6-9.9,2.5-14.8c0.4-1.9-2.4-0.9-3.1-0.3
				c-1.2,1.1-2.7,1.9-4.3,2.4C321,112.7,318,116.4,320.8,115.8L320.8,115.8z"/>
		</g>
	</g>
	<g>
		<g>
			<path class="st5" d="M334.9,99.3c-1.1-1.1-2.3-2.3-3.4-3.4c-0.6-0.6-1.5-0.5-2.2-0.2c-1.1,0.4-2.1,1-2.8,2
				c-0.3,0.5-1.1,1.6-0.5,2.2c1.1,1.1,2.2,2.3,3.4,3.4c1,1,2.9,0.2,3.8-0.6c0.7-0.5,1.3-1.1,1.6-1.8
				C335,100.5,335.3,99.7,334.9,99.3L334.9,99.3z"/>
		</g>
	</g>
	<g>
		<g>
			<path class="st5" d="M347.9,109.5c0.3,5.4,3.2,11,5.2,16c1.9,4.9,3.8,9.1,7.3,13c0.4,0.5,1.6-0.4,1.5-1
				c-0.7-5.4-2.5-9.7-4.6-14.7c-2.1-4.8-3.5-10.9-6.9-14.9C349.8,107,347.9,108.6,347.9,109.5L347.9,109.5z"/>
		</g>
	</g>
	<g>
		<g>
			<path class="st5" d="M364.4,135.3c3.2-4.1,5.5-8.9,8.4-13.2c2.9-4.3,6.6-7.8,9.9-11.7c1-1.2-0.7-1.3-1.5-0.7
				c-4.3,3.4-8,7.9-11.5,12.1c-3.2,3.9-7.3,9-8.5,14C360.8,137.8,364,135.9,364.4,135.3L364.4,135.3z"/>
		</g>
	</g>
	<g>
		<g>
			<path class="st5" d="M402.5,121.8c6.4,1.9,16.8-2.3,16.5-10.1c-0.3-8.8-14.7-5.8-19.5-3.3c-6.9,3.7-10.6,14.4-6.8,21.5
				c5,9.4,19.1,8.3,27.4,5c1.1-0.5,4.2-3.7,1.3-3.5c-5.5,0.3-10.7,2.6-16.3,1c-5.2-1.5-8.9-5.3-8.9-10.8c0-2.2,0.3-4.8,1.4-6.8
				c1.8-3.3,5.8-4.6,9.4-4.9c2.3-0.2,5.6-0.2,7.1,2c1.9,2.7-3.2,6.3-5.4,6.9c-1.4,0.4-3,0.3-4.4,0.6
				C403.8,119.5,401.1,121.4,402.5,121.8L402.5,121.8z"/>
		</g>
	</g>
	<g>
		<g>
			<path class="st5" d="M188.9,107.3c-1.6,5.4-1.3,11.7-1.3,17.2c0,5.2-0.4,11.8,1.7,16.6c0.6,1.3,3.2-1,3.3-1.8
				c0.7-5.3-0.5-10.9-0.6-16.2c-0.1-5.7,1-11.7,0-17.3C191.8,104.3,189.1,106.6,188.9,107.3L188.9,107.3z"/>
		</g>
	</g>
	<g>
		<g>
			<path class="st5" d="M193,113.2c1.9-4.4,6.5-1.4,8.2,0.7c1.5,2,2.1,4.4,2.3,6.8c0.4,5-1,9.9-0.5,14.9c0.2,2.2,4.4-0.8,4.7-2
				c0.7-4,1.5-7.9,2.6-11.7c0.6-2.1,1-5.8,2.5-7.3c0.2-0.6,0.5-1.1,0.7-1.7c2.6-0.5,3.8,0.3,3.5,2.5c2.5,7.2,1,15.7,4.1,22.8
				c0.8,1.7,4-1.4,4.1-2.5c0.3-6.7-2-14.2-3.1-20.8c-0.7-4-1.1-9.2-6.5-7.6c-4.1,1.2-5.9,5.3-7.4,8.9c-2.6,6.2-4.3,12.5-5.1,19.1
				c1.6-0.7,3.1-1.4,4.7-2c-1.2-7.6,2.7-20.3-6.1-24.6c-4.6-2.2-10.2,0.7-11.6,5.3C189.5,115.6,192.7,114,193,113.2L193,113.2z"/>
		</g>
	</g>
</g>
</svg>
