<?xml version="1.0" encoding="utf-8"?>
<!-- Generator: Adobe Illustrator 27.7.0, SVG Export Plug-In . SVG Version: 6.00 Build 0)  -->
<svg version="1.1" xmlns="http://www.w3.org/2000/svg" xmlns:xlink="http://www.w3.org/1999/xlink" x="0px" y="0px"
	 viewBox="0 0 283.5 212.6" style="enable-background:new 0 0 283.5 212.6;" xml:space="preserve">
<style type="text/css">
	.st0{display:none;}
	.st1{display:inline;}
	.st2{fill:none;stroke:#FFFFFF;stroke-width:0.5;stroke-miterlimit:10;}
	.st3{fill:#999999;}
	.st4{fill:#666766;}
	.st5{fill:#FFFFFF;}
</style>
<g id="Layer_1" class="st0">
	<rect x="0" y="-31.6" class="st1" width="283.5" height="283.5"/>
</g>
<g id="Layer_3" class="st0">
	<g class="st1">
		<rect x="0" y="-31.6" class="st2" width="283.5" height="283.5"/>
		<line class="st2" x1="0" y1="204.6" x2="283.5" y2="204.6"/>
		<line class="st2" x1="0" y1="157.4" x2="283.5" y2="157.4"/>
		<line class="st2" x1="0" y1="110.1" x2="283.5" y2="110.1"/>
		<line class="st2" x1="0" y1="62.9" x2="283.5" y2="62.9"/>
		<line class="st2" x1="0" y1="15.6" x2="283.5" y2="15.6"/>
		<line class="st2" x1="236.2" y1="-31.6" x2="236.2" y2="251.9"/>
		<line class="st2" x1="189" y1="-31.6" x2="189" y2="251.9"/>
		<line class="st2" x1="141.7" y1="-31.6" x2="141.7" y2="251.9"/>
		<line class="st2" x1="94.5" y1="-31.6" x2="94.5" y2="251.9"/>
		<line class="st2" x1="47.2" y1="-31.6" x2="47.2" y2="251.9"/>
	</g>
</g>
<g id="Layer_4" class="st0">
	<g class="st1">
		<g>
			<path class="st3" d="M157.5,44.4c-6.6,5.7-9.8,15.6-5.3,23.5c4.5,8,14.9,8.9,21.8,3.4c7.1-5.7,8.1-15.5,3.6-23.2
				c-4.5-7.7-13.1-10.2-20.1-4.3c-1.7,1.4-0.4,2.9,1.4,1.9c13.3-6.7,23.7,22.5,9.3,24.5c-6.1,0.9-11.1-4.1-12.4-9.7
				c-1.4-6,1.3-10.8,5.1-15.2C163.2,42.6,158.8,43.3,157.5,44.4L157.5,44.4z"/>
		</g>
	</g>
	<g class="st1">
		<g>
			<path class="st3" d="M141.8,82.2c3.1-1.6,6.1-3.3,9.3-4.8c3.2-1.5,6.6-2.6,9.8-4.2c0.8-0.4,2.6-2.6,0.5-2.5
				c-7,0.6-14.9,5-20.6,8.8C138.8,81,139.1,83.6,141.8,82.2L141.8,82.2z"/>
		</g>
	</g>
	<g class="st1">
		<g>
			<path class="st3" d="M142.6,82.7c-2,7.6-3.8,16.8-3.8,24.7c0,1.4,2.7-0.6,2.9-1.3c2-7.5,3-16.5,3-24.3
				C144.8,80.8,142.8,82.2,142.6,82.7L142.6,82.7z"/>
		</g>
	</g>
	<g class="st1">
		<g>
			<path class="st3" d="M175.1,73.7c3,1.6,6.2,2.7,9.3,4c3.9,1.6,5.8,2.8,5.5,7.6c-0.5,6.4-2,13-1.3,19.4c0.2,1.6,2.9-0.6,3.1-1.4
				c1.1-4.2,1.4-8.7,1.8-13.1c0.3-3.4,1.5-7.9,0.4-11.2c-0.9-2.5-3.2-3.3-5.5-4.2c-3.6-1.4-7.3-2.8-11.1-3.8
				C176.5,71,173.9,73.1,175.1,73.7L175.1,73.7z"/>
		</g>
	</g>
	<g class="st1">
		<g>
			<path class="st3" d="M147.2,43c6,0.6,12.3,0.2,18.3,0.4c5.7,0.2,11.6,1.2,17.3,0.9c0.9,0,4.3-2.8,2.6-3.4
				c-5.5-1.7-12-1.5-17.8-1.7c-6.1-0.2-12.4-0.4-18.4,0.5C148.2,40,145,42.8,147.2,43L147.2,43z"/>
		</g>
	</g>
	<g class="st1">
		<g>
			<path class="st3" d="M156.1,21.4c-0.2,2.7,0,5.4,0.1,8.1c0.1,2.8-0.5,5.9,0.2,8.7c0.4,1.7,3.1-0.7,3.4-1.5
				c1.5-4.8,1.1-12.2-0.8-16.8C158.5,18.8,156.2,20.7,156.1,21.4L156.1,21.4z"/>
		</g>
	</g>
	<g class="st1">
		<g>
			<path class="st3" d="M160.4,16.4c6.9-0.2,13.7-1.2,20.6-1.5c-0.3-0.3-0.7-0.6-1-0.9c-0.8,6.5-1.3,14.5,0.1,20.9
				c0.3,1.3,2.6-0.5,2.7-1.2c1.4-6.6,1.4-14.6,0.7-21.3c-0.1-0.5-0.6-0.5-1-0.5c-6.4,0.2-12.8-0.2-19.3,0.1
				C161.4,12.1,157.9,16.5,160.4,16.4L160.4,16.4z"/>
		</g>
	</g>
	<g class="st1">
		<g>
			<path class="st3" d="M152.4,88.4c4-2.2,8.1-4.3,12-6.8c0.4-0.3,0.4-0.8-0.2-0.6c-4.1,2-8,4.3-11.9,6.5
				C151.7,88,151.6,88.9,152.4,88.4L152.4,88.4z"/>
		</g>
	</g>
	<g class="st1">
		<g>
			<path class="st3" d="M146.8,99.4c6.6-4.4,13.4-8.4,20.3-12.3c0.5-0.3,1-1.4,0.1-1c-7.5,3.2-14.7,7.1-21.4,11.7
				C143.7,99.1,144.9,100.7,146.8,99.4L146.8,99.4z"/>
		</g>
	</g>
	<g class="st1">
		<g>
			<path class="st3" d="M156.5,100.2c5.8-3.4,12.2-6.6,17.6-10.6c1.4-1,1.2-2.7-0.7-1.8c-6,2.7-11.6,6.7-17.3,10
				C154.4,98.9,154,101.7,156.5,100.2L156.5,100.2z"/>
		</g>
	</g>
	<g class="st1">
		<g>
			<path class="st3" d="M169.3,99.6c4.9-2.7,10.2-5.1,14.8-8.4c0.6-0.4,1-1.8-0.2-1.3c-5.2,2-10.1,5.1-14.9,7.8
				C167.6,98.4,167.2,100.7,169.3,99.6L169.3,99.6z"/>
		</g>
	</g>
	<g class="st1">
		<g>
			<path class="st3" d="M175.6,102.6c0.7,0,2.2-1.6,1.2-1.6C176.1,100.9,174.6,102.6,175.6,102.6L175.6,102.6z"/>
		</g>
	</g>
</g>
<g id="Layer_2">
	<g>
		<g>
			<path class="st5" d="M16.4,79.9c-5.7,20.1-4.6,42.9,4.7,61.8c1.6-1.8,3.2-3.5,4.8-5.3c-0.9,0.2-1.8,0.4-2.7,0.6
				c-0.9,0.2-6.1,3.8-3.4,4.6c0.6,0.2,1.2,0.4,1.8,0.5c2.4,0.7,7.4-2.3,6.2-5.2c-8.2-18.9-10.9-38.6-6-58.8
				C22.3,75.3,16.9,78,16.4,79.9L16.4,79.9z"/>
		</g>
	</g>
	<g>
		<g>
			<path class="st5" d="M12,76.9c10.6-0.4,28.4-8,35.2,4.4c7.1,13.1-20,19.3-27.8,23.3c-1.3,0.7-4,4.1-0.8,3.9
				c7.8-0.5,16.7-5.9,23.2-9.9c5.5-3.4,12.3-8.2,12.3-15.4c0-7.4-6.4-12.3-13.1-13.6c-8.8-1.7-17.7,1.7-26.4,2.1
				C12.1,71.8,7.8,77,12,76.9L12,76.9z"/>
		</g>
	</g>
	<g>
		<g>
			<path class="st5" d="M55.7,113.3c-7.9,2-16.6,14.9-11.7,22.6c6.3,9.9,21,4,27.1-2.8c7.1-7.9,3.8-20.7-7.5-21.9
				c-10.2-1-19.9,8.1-19.5,18.3c0.1,2.6,5.4-0.8,5.7-2.5c0.9-6.2,4.8-12.2,11.9-9.9c5.6,1.8,9.1,9,5.4,14.1
				c-3.7,5.1-12.3,6.9-16.9,1.9c-4.1-4.5-0.3-13.5,4.7-16.1C56,116.4,58.7,112.6,55.7,113.3L55.7,113.3z"/>
		</g>
	</g>
	<g>
		<g>
			<path class="st5" d="M187.5,116.7c-3.8-4.2-9.3-0.5-12.8,2.2c-4.3,3.2-9,8.7-7.1,14.5c1.7,5.3,7.5,6,11.8,3.3
				c5.3-3.4,9-10.1,9.7-16.3c0.5-3.9-6.3,0.1-6.9,2.4c-0.7,2.7-1.5,5.3-2.9,7.7c-0.8,1.4-1.4,3-3.5,2.3c-1-0.3-2-1.5-2.5-2.5
				c-2.3-4.8,6.1-14.5,10.7-10.8C185.1,120.5,188.6,117.8,187.5,116.7L187.5,116.7z"/>
		</g>
	</g>
	<g>
		<g>
			<path class="st5" d="M184.9,122.5c-1.3,3.5-6,19.4,2.1,18.1c1-0.1,4-2,2.9-3.3c-0.9-1.1-1.9-1.4-2.4-2.9
				c-0.3-1.1-0.3-2.3-0.3-3.4c-0.1-3.1,0-6.1,0.2-9.2C187.5,120.3,185.2,121.7,184.9,122.5L184.9,122.5z"/>
		</g>
	</g>
	<g>
		<g>
			<path class="st5" d="M199.6,122.8c2.4-0.4,4.3-1.6,6.2-3.2c-1.2,0-2.5,0.1-3.7,0.1c-0.5,2.8-1.1,5.6-1.6,8.4
				c-0.4,2.2-1.1,4.7-0.1,6.8c2.1,4.4,8.2,3.6,11.8,1.8c0.8-0.4,3.7-3.4,1.3-3.6c-1.8-0.2-3.6,0.5-5.4,0.2c-2.4-0.5-3.3-2.3-3-4.7
				c0.3-3.5,1.1-7.1,1.7-10.5c0.4-1.9-2.4-0.9-3.1-0.3c-0.8,0.7-1.7,1.2-2.7,1.5C199.8,119.7,196.7,123.3,199.6,122.8L199.6,122.8z"
				/>
		</g>
	</g>
	<g>
		<g>
			<path class="st5" d="M210.6,110c-0.8-0.8-1.6-1.6-2.4-2.4c-1-1-2.8-0.2-3.8,0.6c-0.6,0.5-1.3,1.1-1.6,1.8
				c-0.2,0.4-0.5,1.2-0.1,1.6c0.8,0.8,1.6,1.6,2.4,2.4c1,1,2.9,0.2,3.8-0.6c0.6-0.5,1.3-1.1,1.6-1.8
				C210.7,111.1,211,110.4,210.6,110L210.6,110z"/>
		</g>
	</g>
	<g>
		<g>
			<path class="st5" d="M225.8,92.5c-2.1,11.8-2,23.9-2.3,35.8c-0.1,4,0.2,7.6,3.8,10c3.8,2.4,8.5,2.3,12.6,0.9
				c0.7-0.2,3.9-2.7,2.2-3.4c-3.4-1.5-7.9-0.2-10.7-3.2c-3-3.1-1.8-9.3-1.7-13.3c0.1-9.3,0.7-18.8-0.7-28
				C228.6,89.7,225.9,91.7,225.8,92.5L225.8,92.5z"/>
		</g>
	</g>
	<g>
		<g>
			<path class="st5" d="M217.5,119.2c3.1,1.7,7.7,1.1,11.2,1c4.2-0.1,8.6-0.4,12.7-1.2c0.7-0.1,3-1.9,1.4-2.3
				c-7-1.5-16.8-2.3-23.7,0C218.4,116.9,216.3,118.6,217.5,119.2L217.5,119.2z"/>
		</g>
	</g>
	<g>
		<g>
			<path class="st5" d="M263.3,115.2c-4.8,0.1-12,3.7-12.5,9.2c-0.2,3,1.6,4.4,4.3,4.9c1.9,0.4,4.5,0.2,4.6,2.9
				c0.1,2.2-5.9,3.9-7.6,4.8c-0.7,0.4-2.4,1.8-1.3,2.6c4.6,3.5,13.6-3.1,14.7-7.9c0.5-2.3-0.2-5-2.3-6.2c-1.4-0.9-3-0.5-4.5-0.9
				c-5.6-1.4,1.2-5.6,3.5-6.7C262.9,117.7,265.1,115.2,263.3,115.2L263.3,115.2z"/>
		</g>
	</g>
	<g>
		<g>
			<path class="st5" d="M86.6,115.6c0.4,0,1.2-0.9,0.7-0.9C86.9,114.7,86,115.6,86.6,115.6L86.6,115.6z"/>
		</g>
	</g>
	<g>
		<g>
			<path class="st5" d="M86.4,115.3c-1.4,4-1.1,8.4-1.9,12.5c-0.8,4.3-2.1,8.4-2.5,12.7c-0.3,3.1,5.5,0.2,5.6-2
				c0.3-3.8-0.1-7.4-0.3-11.1c-0.3-4.2,1.2-8.6,0.1-12.7C87.3,114.4,86.5,115.1,86.4,115.3L86.4,115.3z"/>
		</g>
	</g>
	<g>
		<g>
			<path class="st5" d="M89,116.1c2.2-1.2,4.9-1.5,7.1-0.2c1.7,1,2.6,2.9,3.5,4.7c0.2,0.3,0.5,0.4,0.9,0.5c0.3,0,0.6,0,0.8,0
				c1.3,0.1,2.8-1,3.3-2.1c0.9-1.8,0.6-3-1-4.3c-1.4-1.1-3.2-1.9-4.8-2.4c-3.5-1.1-7-0.5-10.2,1.3C86.9,114.7,86.4,117.5,89,116.1
				L89,116.1z"/>
		</g>
	</g>
	<g>
		<g>
			<path class="st5" d="M116.1,92.5c-2.1,11.8-2,23.9-2.3,35.8c-0.1,4,0.2,7.6,3.8,10c3.8,2.4,8.5,2.3,12.6,0.9
				c0.7-0.2,3.9-2.7,2.2-3.4c-3.4-1.5-7.9-0.2-10.7-3.2c-3-3.1-1.8-9.3-1.7-13.3c0.1-9.3,0.7-18.8-0.7-28
				C118.9,89.7,116.2,91.7,116.1,92.5L116.1,92.5z"/>
		</g>
	</g>
	<g>
		<g>
			<path class="st5" d="M107.7,119.2c3.1,1.7,7.7,1.1,11.2,1c4.2-0.1,8.6-0.4,12.7-1.2c0.7-0.1,3-1.9,1.4-2.3
				c-7-1.5-16.8-2.3-23.7,0C108.7,116.9,106.5,118.6,107.7,119.2L107.7,119.2z"/>
		</g>
	</g>
	<g>
		<g>
			<path class="st5" d="M145.7,115.4c0.4,0,1.2-0.9,0.7-0.9C146,114.5,145.2,115.4,145.7,115.4L145.7,115.4z"/>
		</g>
	</g>
	<g>
		<g>
			<path class="st5" d="M145.5,115.1c-1.4,4-1.1,8.4-1.9,12.5c-0.8,4.3-2.1,8.4-2.5,12.7c-0.3,3.1,5.5,0.2,5.6-2
				c0.3-3.8-0.1-7.4-0.3-11.1c-0.3-4.2,1.2-8.6,0.1-12.7C146.4,114.1,145.6,114.9,145.5,115.1L145.5,115.1z"/>
		</g>
	</g>
	<g>
		<g>
			<path class="st5" d="M148.2,115.8c2.2-1.2,4.9-1.5,7.1-0.2c1.7,1,2.6,2.9,3.5,4.7c0.2,0.3,0.5,0.4,0.9,0.5c0.3,0,0.6,0,0.8,0
				c1.3,0.1,2.8-1,3.3-2.1c0.9-1.8,0.6-3-1-4.3c-1.4-1.1-3.2-1.9-4.8-2.4c-3.5-1.1-7-0.5-10.2,1.3
				C146,114.4,145.5,117.3,148.2,115.8L148.2,115.8z"/>
		</g>
	</g>
</g>
</svg>
